<?xml version="1.0" encoding="UTF-8"?>
<svg width="237px" height="37px" viewBox="0 0 237 37" version="1.1" xmlns="http://www.w3.org/2000/svg" xmlns:xlink="http://www.w3.org/1999/xlink">
    <!-- Generator: Sketch 57.1 (83088) - https://sketch.com -->
    <title>atom/link/icon link</title>
    <desc>Created with Sketch.</desc>
    <defs>
        <path d="M8.70272131,0.3048 L8.70272131,1.0304 C10.0763279,1.1624 10.4675246,1.6896 10.4675246,2.8768 L10.4675246,2.8768 L10.4675246,12.636 C10.4675246,14.7456 9.22565574,15.9992 7.26404918,15.9992 L7.26404918,15.9992 C5.5635082,15.9992 4.32083607,14.8784 4.32083607,12.7024 L4.32083607,12.7024 L4.32083607,2.6136 C4.32083607,1.4264 4.45177049,1.096 5.95631148,1.0304 L5.95631148,1.0304 L5.95631148,0.3048 L0.461885246,0.3048 L0.461885246,1.0304 C1.96642623,1.096 2.09736066,1.4264 2.09736066,2.6136 L2.09736066,2.6136 L2.09736066,12.1088 C2.09736066,15.0104 3.60109836,16.7904 6.8712459,16.7904 L6.8712459,16.7904 C10.1413934,16.7904 11.3840656,15.076 11.3840656,12.1752 L11.3840656,12.1752 L11.3840656,2.8768 C11.3840656,1.624 11.711,1.096 13.1496721,1.0304 L13.1496721,1.0304 L13.1496721,0.3048 L8.70272131,0.3048 Z" id="path-1"></path>
        <path d="M4.17303279,2.4288 L4.10796721,2.4288 L4.10796721,0.1864 L0.708491803,0.3192 L0.708491803,1.0448 C1.95036066,1.1104 2.21222951,1.308 2.21222951,2.2968 L2.21222951,2.2968 L2.21222951,9.616 C2.21222951,10.3424 1.81942623,10.7376 0.708491803,10.804 L0.708491803,10.804 L0.708491803,11.5288 L0.708491803,11.5952 L5.8085082,11.5952 L5.8085082,10.8696 C4.69677049,10.804 4.30477049,10.4072 4.30477049,9.6824 L4.30477049,9.6824 L4.30477049,5.1328 C4.30477049,2.8248 5.54663934,1.176 6.78931148,1.176 L6.78931148,1.176 C7.57411475,1.176 8.16372131,1.704 8.16372131,3.2208 L8.16372131,3.2208 L8.16372131,11.4632 L11.5631967,11.4632 L11.5631967,10.7376 C10.4522623,10.672 10.1245246,10.3424 10.1245246,9.5504 L10.1245246,9.5504 L10.1245246,3.352 C10.1245246,1.308 9.20959016,0.0544 7.31304918,0.0544 L7.31304918,0.0544 C5.67757377,0.0544 4.82770492,1.1104 4.17303279,2.4288 L4.17303279,2.4288 Z" id="path-3"></path>
        <path d="M1.88770492,1.5576 C1.88770492,2.4816 2.34557377,3.0752 3.0645082,3.0752 L3.0645082,3.0752 C3.7842459,3.0752 4.24131148,2.4144 4.24131148,1.5576 L4.24131148,1.5576 C4.24131148,0.6352 3.7842459,0.0416 3.0645082,0.0416 L3.0645082,0.0416 C2.34557377,0.0416 1.88770492,0.6352 1.88770492,1.5576 L1.88770492,1.5576 Z M0.775163934,5.0536 L0.775163934,5.7784 C2.01783607,5.7784 2.27970492,5.976 2.27970492,6.9648 L2.27970492,6.9648 L2.27970492,14.416 C2.27970492,15.1424 1.88770492,15.5376 0.775163934,15.604 L0.775163934,15.604 L0.775163934,16.3288 L0.775163934,16.3952 L5.74504918,16.3952 L5.74504918,15.6696 C4.63331148,15.604 4.24131148,15.2072 4.24131148,14.4824 L4.24131148,14.4824 L4.24131148,4.9208 L0.775163934,5.0536 Z" id="path-5"></path>
        <path d="M2.93437705,0.0984 C2.8042459,3.0656 1.95357377,3.8576 0.253032787,4.5832 L0.253032787,4.5832 L0.253032787,5.2416 L1.62663934,5.2416 L1.62663934,13.024 C1.62663934,14.8696 2.6082459,15.8584 4.11278689,15.8584 L4.11278689,15.8584 C5.87759016,15.8584 6.7282623,14.804 6.7282623,12.4296 L6.7282623,12.4296 L6.7282623,11.3088 L6.00852459,11.3088 L6.00852459,11.968 C6.00852459,14.4744 5.41972131,14.9352 4.63491803,14.9352 L4.63491803,14.9352 C3.98104918,14.9352 3.65411475,14.54 3.65411475,13.4856 L3.65411475,13.4856 L3.65411475,5.2416 L6.46639344,5.2416 L6.46639344,4.3192 L3.65411475,4.3192 L3.65411475,0.0984 L2.93437705,0.0984 Z" id="path-7"></path>
        <path d="M0.413688525,5.924 C0.413688525,8.8248 2.31022951,11.7928 5.18837705,11.7928 L5.18837705,11.7928 C7.80385246,11.7928 8.91478689,9.7488 9.11159016,7.7048 L9.11159016,7.7048 L8.39265574,7.5728 C8.13078689,9.1544 7.41104918,10.9352 5.44944262,10.9352 L5.44944262,10.9352 C3.87983607,10.9352 2.70303279,9.1544 2.70303279,5.8576 L2.70303279,5.8576 L9.04652459,5.8576 C9.04652459,2.4952 7.41104918,0.0544 4.86063934,0.0544 L4.86063934,0.0544 C2.24516393,0.0544 0.413688525,2.4952 0.413688525,5.924 L0.413688525,5.924 Z M4.86063934,0.8456 C6.10331148,0.8456 6.75718033,2.0336 6.75718033,5.0008 L6.75718033,5.0008 L2.63796721,5.0008 C2.63796721,2.0336 3.48703279,0.8456 4.86063934,0.8456 L4.86063934,0.8456 Z" id="path-9"></path>
        <path d="M5.6197377,0.2384 L5.6197377,1.0304 L5.68480328,1.0304 C6.86240984,1.096 7.18934426,1.228 7.18934426,2.2176 L7.18934426,2.2176 L7.18934426,6.4368 L7.12427869,6.4368 C6.66560656,5.5152 5.88160656,4.8544 4.76906557,4.8544 L4.76906557,4.8544 C2.34959016,4.8544 0.518114754,7.3608 0.518114754,10.7896 L0.518114754,10.7896 C0.518114754,14.4824 2.41465574,16.5928 4.50719672,16.5928 L4.50719672,16.5928 C5.94586885,16.5928 6.66560656,15.7352 7.18934426,14.6808 L7.18934426,14.6808 L7.25521311,14.6808 L7.25521311,16.3288 L10.5237541,16.1968 L10.5237541,15.472 C9.60881967,15.472 9.15095082,15.1424 9.15095082,13.824 L9.15095082,13.824 L9.15095082,0.1072 L5.6197377,0.2384 Z M2.80745902,10.8552 C2.80745902,7.2288 3.65732787,5.7784 4.9,5.7784 L4.9,5.7784 C6.33867213,5.7784 7.18934426,7.4928 7.18934426,10.8552 L7.18934426,10.8552 C7.18934426,14.8784 5.94586885,15.9336 4.704,15.9336 L4.704,15.9336 C3.5922623,15.8672 2.80745902,14.416 2.80745902,10.8552 L2.80745902,10.8552 Z" id="path-11"></path>
        <path d="M7.86409836,0.3048 L7.86409836,1.0304 C9.30277049,1.096 9.56463934,1.4264 9.56463934,2.6136 L9.56463934,2.6136 L9.56463934,7.4264 L4.59395082,7.4264 L4.59395082,2.6136 C4.59395082,1.4264 4.85581967,1.096 6.2944918,1.0304 L6.2944918,1.0304 L6.2944918,0.3048 L0.670737705,0.3048 L0.670737705,1.0304 C2.04354098,1.096 2.30540984,1.4264 2.30540984,2.6136 L2.30540984,2.6136 L2.30540984,14.0208 C2.30540984,15.2072 2.04354098,15.5376 0.670737705,15.604 L0.670737705,15.604 L0.670737705,16.3288 L6.2944918,16.3288 L6.2944918,15.604 C4.85581967,15.5376 4.59395082,15.2072 4.59395082,14.0208 L4.59395082,14.0208 L4.59395082,8.3504 L9.56463934,8.3504 L9.56463934,14.0208 C9.56463934,15.2072 9.30277049,15.5376 7.86409836,15.604 L7.86409836,15.604 L7.86409836,16.3288 L13.4878525,16.3288 L13.4878525,15.604 C12.1150492,15.5376 11.8531803,15.2072 11.8531803,14.0208 L11.8531803,14.0208 L11.8531803,2.6136 C11.8531803,1.4264 12.1150492,1.096 13.4878525,1.0304 L13.4878525,1.0304 L13.4878525,0.3048 L7.86409836,0.3048 Z" id="path-13"></path>
        <path d="M0.159852459,5.924 C0.159852459,8.8248 2.05559016,11.7928 4.93293443,11.7928 L4.93293443,11.7928 C7.54840984,11.7928 8.66095082,9.7488 8.85695082,7.7048 L8.85695082,7.7048 L8.13721311,7.5728 C7.87534426,9.1544 7.15640984,10.9352 5.19480328,10.9352 L5.19480328,10.9352 C3.62519672,10.9352 2.44759016,9.1544 2.44759016,5.8576 L2.44759016,5.8576 L8.79188525,5.8576 C8.79188525,2.4952 7.15640984,0.0544 4.606,0.0544 L4.606,0.0544 C1.98972131,0.0544 0.159852459,2.4952 0.159852459,5.924 L0.159852459,5.924 Z M4.67186885,0.8456 C5.91454098,0.8456 6.56840984,2.0336 6.56840984,5.0008 L6.56840984,5.0008 L2.44759016,5.0008 C2.44759016,2.0336 3.2982623,0.8456 4.67186885,0.8456 L4.67186885,0.8456 Z" id="path-15"></path>
        <path d="M0.871557377,3.6248 C0.871557377,4.5472 1.32942623,5.0088 1.9824918,5.0088 L1.9824918,5.0088 C2.63716393,5.0088 3.15929508,4.4816 3.15929508,3.6248 L3.15929508,3.6248 C3.15929508,2.9648 2.89822951,2.372 2.1784918,2.3056 L2.1784918,2.3056 C2.63716393,1.712 3.35609836,1.4488 4.14090164,1.4488 L4.14090164,1.4488 C5.38357377,1.4488 5.97157377,2.0416 5.97157377,3.3608 L5.97157377,3.3608 L5.97157377,5.2736 C3.94490164,5.9984 0.347819672,7.1192 0.347819672,9.7568 L0.347819672,9.7568 C0.347819672,11.2744 1.3944918,12.3952 3.15929508,12.3952 L3.15929508,12.3952 C4.79477049,12.3952 5.44863934,11.604 6.03744262,10.5488 L6.03744262,10.5488 L6.1025082,10.5488 C6.23344262,11.8016 6.88731148,12.3952 7.99985246,12.3952 L7.99985246,12.3952 C9.43852459,12.3952 9.89639344,11.34 9.89639344,8.9 L9.89639344,8.9 L9.11078689,9.0976 C9.04491803,10.812 8.84891803,11.2744 8.45772131,11.2744 L8.45772131,11.2744 C8.12998361,11.2744 7.99985246,10.9448 7.99985246,10.2856 L7.99985246,10.2856 L7.99985246,3.756 C7.99985246,1.976 7.01904918,0.7888 4.40196721,0.7888 L4.40196721,0.7888 C2.37529508,0.7888 0.871557377,2.0416 0.871557377,3.6248 L0.871557377,3.6248 Z M2.50622951,9.8888 C2.50622951,7.9104 4.20677049,6.9872 6.03744262,6.328 L6.03744262,6.328 L6.03744262,7.7136 L5.97157377,7.7136 C5.97157377,10.3504 4.92570492,11.7352 3.74890164,11.7352 L3.74890164,11.7352 C3.02916393,11.7352 2.50622951,11.1424 2.50622951,9.8888 L2.50622951,9.8888 Z" id="path-17"></path>
        <path d="M0.66752459,0.3048 L0.66752459,1.0304 C1.7792623,1.096 2.1712623,1.492 2.1712623,2.2832 L2.1712623,2.2832 L2.1712623,14.416 C2.1712623,15.1424 1.7792623,15.5376 0.66752459,15.604 L0.66752459,15.604 L0.66752459,16.3288 L0.66752459,16.3952 L5.70247541,16.3952 L5.70247541,15.6696 C4.5907377,15.604 4.1987377,15.2072 4.1987377,14.4824 L4.1987377,14.4824 L4.1987377,0.1728 L0.66752459,0.3048 Z" id="path-19"></path>
        <path d="M3.43401639,0.0984 C3.30308197,3.0656 2.45240984,3.8576 0.751868852,4.5832 L0.751868852,4.5832 L0.751868852,5.2416 L2.19134426,5.2416 L2.19134426,13.024 C2.19134426,14.8696 3.17214754,15.8584 4.67668852,15.8584 L4.67668852,15.8584 C6.44229508,15.8584 7.29216393,14.804 7.29216393,12.4296 L7.29216393,12.4296 L7.29216393,11.3088 L6.57242623,11.3088 L6.57242623,11.968 C6.57242623,14.4744 5.98442623,14.9352 5.19881967,14.9352 L5.19881967,14.9352 C4.5457541,14.9352 4.21801639,14.54 4.21801639,13.4856 L4.21801639,13.4856 L4.21801639,5.2416 L7.03029508,5.2416 L7.03029508,4.3192 L4.21801639,4.3192 L4.21801639,0.0984 L3.43401639,0.0984 Z" id="path-21"></path>
        <path d="M0.735,0.3048 L0.735,1.0304 C1.97767213,1.0304 2.23954098,1.228 2.23954098,2.2176 L2.23954098,2.2176 L2.23954098,14.416 C2.23954098,15.1424 1.8467377,15.5376 0.735,15.604 L0.735,15.604 L0.735,16.3288 L5.7707541,16.3288 L5.7707541,15.604 C4.65901639,15.5376 4.26621311,15.1424 4.26621311,14.416 L4.26621311,14.416 L4.26621311,9.7352 C4.26621311,7.4928 5.50968852,5.976 6.6864918,5.976 L6.6864918,5.976 C7.53636066,5.976 8.12516393,6.504 8.12516393,8.152 L8.12516393,8.152 L8.12516393,16.2632 L11.5254426,16.2632 L11.5254426,15.5376 C10.4787705,15.472 10.0867705,15.076 10.0867705,14.3504 L10.0867705,14.3504 L10.0867705,8.152 C10.0867705,6.108 8.97503279,4.8544 7.20942623,4.8544 L7.20942623,4.8544 C5.70488525,4.8544 4.78914754,5.9104 4.33208197,6.9648 L4.33208197,6.9648 L4.26621311,6.9648 L4.26621311,0.1072 L0.735,0.3048 Z" id="path-23"></path>
        <path d="M0.60647541,6.3192 C0.60647541,9.8152 2.76488525,11.9256 5.11929508,11.9256 L5.11929508,11.9256 C7.66970492,11.9256 8.71557377,9.9456 8.91157377,7.7048 L8.91157377,7.7048 L8.12757377,7.5728 C7.86570492,9.2208 7.27690164,10.9352 5.38036066,10.9352 L5.38036066,10.9352 C4.07262295,10.9352 2.8307541,9.8152 2.8307541,5.8576 L2.8307541,5.8576 C2.8307541,2.5608 4.00755738,0.78 5.70809836,0.78 L5.70809836,0.78 C6.55796721,0.78 7.34277049,1.2416 7.66970492,2.0992 L7.66970492,2.0992 L7.60383607,2.1648 C7.53796721,2.1648 7.40783607,2.0992 7.27690164,2.0992 L7.27690164,2.0992 C6.68890164,2.0992 6.36116393,2.4952 6.36116393,3.4848 L6.36116393,3.4848 C6.36116393,4.2752 6.81903279,4.8688 7.47290164,4.8688 L7.47290164,4.8688 C8.32357377,4.8688 8.6505082,4.2752 8.6505082,3.1552 L8.6505082,3.1552 C8.6505082,1.3744 7.40783607,0.1208 5.44622951,0.1208 L5.44622951,0.1208 C2.63395082,0.1208 0.60647541,3.4176 0.60647541,6.3192 L0.60647541,6.3192 Z" id="path-25"></path>
        <path d="M0.645836066,2.8904 C0.645836066,3.8136 1.10370492,4.3416 1.75757377,4.3416 L1.75757377,4.3416 C2.41144262,4.3416 2.93518033,3.8136 2.93518033,2.956 L2.93518033,2.956 C2.93518033,2.2968 2.67331148,1.704 1.95357377,1.6368 L1.95357377,1.6368 C2.41144262,1.0448 3.13118033,0.78 3.91518033,0.78 L3.91518033,0.78 C5.15785246,0.78 5.74665574,1.3744 5.74665574,2.6928 L5.74665574,2.6928 L5.74665574,4.6048 C3.71918033,5.3304 0.0570327869,6.452 0.0570327869,9.1544 L0.0570327869,9.1544 C0.0570327869,10.7376 1.10370492,11.7928 2.86931148,11.7928 L2.86931148,11.7928 C4.50478689,11.7928 5.22372131,11.0016 5.74665574,9.9456 L5.74665574,9.9456 L5.81252459,9.9456 C5.94345902,11.1992 6.59652459,11.7928 7.7082623,11.7928 L7.7082623,11.7928 C9.14693443,11.7928 9.60480328,10.7376 9.60480328,8.232 L9.60480328,8.232 L8.88586885,8.364 C8.82080328,10.0784 8.68986885,10.6056 8.232,10.6056 L8.232,10.6056 C7.9042623,10.6056 7.77413115,10.276 7.77413115,9.616 L7.77413115,9.616 L7.77413115,3.0224 C7.77413115,1.2416 6.79332787,0.0544 4.17704918,0.0544 L4.17704918,0.0544 C2.14957377,0.0544 0.645836066,1.308 0.645836066,2.8904 L0.645836066,2.8904 Z M2.14957377,9.1544 C2.14957377,7.1768 3.85011475,6.2536 5.68159016,5.5944 L5.68159016,5.5944 L5.68159016,6.9136 L5.74665574,6.9136 C5.74665574,9.5504 4.70078689,11.0016 3.45811475,11.0016 L3.45811475,11.0016 C2.73837705,11.0016 2.14957377,10.4072 2.14957377,9.1544 L2.14957377,9.1544 Z" id="path-27"></path>
        <path d="M3.49747541,2.8904 L3.43240984,2.8904 L3.43240984,0.1864 L0.227327869,0.3192 L0.227327869,1.1104 C1.40413115,1.176 1.666,1.704 1.666,3.2856 L1.666,3.2856 L1.666,9.6824 C1.666,10.4072 1.274,10.804 0.293196721,10.8696 L0.293196721,10.8696 L0.293196721,11.5952 L5.59001639,11.5952 L5.59001639,10.8696 C4.02040984,10.804 3.62840984,10.4072 3.62840984,9.6824 L3.62840984,9.6824 L3.62840984,6.3192 C3.62840984,4.2752 4.34734426,0.78 5.91695082,0.78 L5.91695082,0.78 C6.17881967,0.78 6.37481967,0.8456 6.5057541,1.0448 L6.5057541,1.0448 C5.85188525,1.0448 5.52414754,1.6368 5.52414754,2.2312 L5.52414754,2.2312 C5.52414754,3.2856 6.04788525,3.616 6.57081967,3.616 L6.57081967,3.616 C7.2254918,3.616 7.68255738,3.088 7.68255738,2.0992 L7.68255738,2.0992 C7.68255738,0.78 6.83268852,0.0544 5.98201639,0.0544 L5.98201639,0.0544 C4.60921311,0.0544 3.82360656,1.6368 3.49747541,2.8904 L3.49747541,2.8904 Z" id="path-29"></path>
        <path d="M0.45304918,5.9896 C0.45304918,8.8912 2.34959016,11.8584 5.22693443,11.8584 L5.22693443,11.8584 C7.84321311,11.8584 8.95495082,9.8152 9.15095082,7.7704 L9.15095082,7.7704 L8.43121311,7.6384 C8.17014754,9.2208 7.45121311,11.0016 5.42293443,11.0016 L5.42293443,11.0016 C3.85332787,11.0016 2.67652459,9.2208 2.67652459,5.924 L2.67652459,5.924 L9.08588525,5.924 C9.08588525,2.4952 7.45121311,0.0544 4.9,0.0544 L4.9,0.0544 C2.28372131,0.0544 0.45304918,2.4952 0.45304918,5.9896 L0.45304918,5.9896 Z M4.9,0.78 C6.14267213,0.78 6.86160656,1.9672 6.86160656,5.0008 L6.86160656,5.0008 L2.67652459,5.0008 C2.67652459,1.9672 3.59306557,0.78 4.9,0.78 L4.9,0.78 Z" id="path-31"></path>
        <path d="M0.137360656,2.2 C0.137360656,3.1888 0.922163934,3.98 1.90296721,3.98 L1.90296721,3.98 C2.88377049,3.98 3.6035082,3.1888 3.6035082,2.2 L3.6035082,2.2 C3.6035082,1.2768 2.81790164,0.4848 1.90296721,0.4848 L1.90296721,0.4848 C0.922163934,0.4848 0.137360656,1.2768 0.137360656,2.2 L0.137360656,2.2 Z M0.39842623,2.2656 C0.39842623,1.4088 1.05309836,0.7488 1.90296721,0.7488 L1.90296721,0.7488 C2.75283607,0.7488 3.4075082,1.4088 3.4075082,2.2656 L3.4075082,2.2656 C3.4075082,3.1232 2.75283607,3.7832 1.90296721,3.7832 L1.90296721,3.7832 C1.05309836,3.7832 0.39842623,3.1232 0.39842623,2.2656 L0.39842623,2.2656 Z M1.31496721,1.1448 L1.31496721,3.1888 L1.64109836,3.1888 L1.64109836,2.332 L1.90296721,2.332 C1.96803279,2.332 2.16483607,2.332 2.22990164,2.5296 L2.22990164,2.5296 C2.22990164,2.7936 2.22990164,3.0576 2.29577049,3.1888 L2.29577049,3.1888 L2.62270492,3.1888 C2.55683607,3.0576 2.55683607,2.728 2.55683607,2.6616 L2.55683607,2.6616 C2.55683607,2.2656 2.49177049,2.2 2.22990164,2.1344 L2.22990164,2.1344 C2.49177049,2.068 2.68777049,1.9352 2.68777049,1.6728 L2.68777049,1.6728 C2.68777049,1.4088 2.49177049,1.1448 2.09896721,1.1448 L2.09896721,1.1448 L1.31496721,1.1448 Z M1.57603279,1.4752 L1.96803279,1.4752 C2.16483607,1.4752 2.22990164,1.6064 2.22990164,1.8048 L2.22990164,1.8048 C2.22990164,2.0024 2.16483607,2.1344 1.96803279,2.1344 L1.96803279,2.1344 L1.57603279,2.1344 L1.57603279,1.4752 Z" id="path-33"></path>
        <path d="M0,3.8384 L0,18.6752 C0,24.3456 0.980803279,25.6648 2.28934426,25.9288 L2.28934426,25.9288 L2.68134426,25.9288 L2.74640984,25.9288 L2.81227869,25.9288 L2.87734426,25.9288 L2.94240984,25.9288 L3.00827869,25.9288 L3.07334426,25.9288 L3.13840984,25.9288 L3.20427869,25.9288 L3.27014754,25.9288 L3.33521311,25.9288 L3.40027869,25.9288 L3.46614754,25.9288 L3.53201639,25.9288 L3.59708197,25.9288 L3.66214754,25.9288 L3.72801639,25.9288 L3.79308197,25.9288 L3.85814754,25.9288 L3.92401639,25.9288 L3.98988525,25.9288 C3.98988525,25.9288 4.05495082,25.9288 4.05495082,25.8632 L4.05495082,25.8632 L4.12001639,25.8632 C4.12001639,25.8632 4.18508197,25.8632 4.18508197,25.7968 L4.18508197,25.7968 L4.25095082,25.7968 C4.25095082,25.7968 4.31601639,25.7968 4.31601639,25.7312 L4.31601639,25.7312 L4.38108197,25.7312 L4.44695082,25.6648 L4.51201639,25.6648 L4.57708197,25.5992 L4.64295082,25.5992 L4.70881967,25.5336 L4.77388525,25.4672 L4.83895082,25.4016 L4.90481967,25.3352 L4.97068852,25.2696 C4.97068852,25.2696 4.97068852,25.204 5.0357541,25.204 L5.0357541,25.204 L5.10081967,25.1376 L5.16668852,25.072 L5.2317541,25.0056 C5.2317541,25.0056 5.2317541,24.94 5.29681967,24.94 L5.29681967,24.94 C5.29681967,24.8744 5.36268852,24.8744 5.36268852,24.8072 L5.36268852,24.8072 C5.36268852,24.8072 5.36268852,24.7424 5.42855738,24.7424 L5.42855738,24.7424 C5.42855738,24.676 5.49362295,24.676 5.49362295,24.6104 L5.49362295,24.6104 L5.55868852,24.5448 C5.55868852,24.4784 5.6237541,24.4784 5.6237541,24.412 L5.6237541,24.412 L5.68962295,24.3456 C5.68962295,24.2808 5.75468852,24.2808 5.75468852,24.2152 L5.75468852,24.2152 L5.8197541,24.1488 C5.8197541,24.0824 5.88562295,24.0824 5.88562295,24.016 L5.88562295,24.016 C5.88562295,23.9504 5.88562295,23.9504 5.95068852,23.8856 L5.95068852,23.8856 C5.95068852,23.8192 6.0157541,23.8192 6.0157541,23.7536 L6.0157541,23.7536 C6.0157541,23.6864 6.08162295,23.6864 6.08162295,23.6208 L6.08162295,23.6208 C6.08162295,23.5544 6.1474918,23.5544 6.1474918,23.4888 L6.1474918,23.4888 C5.88562295,23.2912 5.88562295,23.2248 5.88562295,23.1592 L5.88562295,23.1592 C5.88562295,23.0936 5.95068852,23.0936 5.95068852,23.028 L5.95068852,23.028 C5.95068852,22.9616 6.0157541,22.9616 6.0157541,22.8952 L6.0157541,22.8952 C6.0157541,22.8296 6.08162295,22.8296 6.08162295,22.764 L6.08162295,22.764 C6.08162295,22.6976 6.1474918,22.6976 6.1474918,22.632 L6.1474918,22.632 C6.1474918,22.5656 6.21255738,22.5 6.21255738,22.4344 L6.21255738,22.4344 C6.21255738,22.368 6.27762295,22.3024 6.27762295,22.236 L6.27762295,22.236 C6.27762295,22.1704 6.27762295,22.1704 6.3434918,22.1048 L6.3434918,22.1048 C6.40936066,21.9728 6.40936066,21.9056 6.47442623,21.7752 L6.47442623,21.7752 C6.93229508,20.1264 7.06242623,16.6968 7.06242623,14.4544 L7.06242623,14.4544 L7.06242623,0.08 L0,3.8384 Z" id="path-35"></path>
        <path d="M5.3257377,1.6144 L6.89454098,2.0096 L6.89454098,15.1976 C6.89454098,18.5608 6.82947541,21.5944 6.24147541,23.5728 L6.24147541,23.5728 C5.45586885,26.3424 4.08306557,27.4632 3.1022623,27.8584 L3.1022623,27.8584 L0.616918033,27.5952 C0.878786885,28.3864 1.46678689,28.9792 2.18652459,29.112 L2.18652459,29.112 L2.84039344,29.0456 C5.58680328,28.6504 7.15640984,25.616 7.54840984,24.1 L7.54840984,24.1 C8.13801639,21.9896 8.26895082,19.4176 8.26895082,16.4504 L8.26895082,16.4504 L8.26895082,0.0312 L5.3257377,1.6144 Z" id="path-37"></path>
        <path d="M6.72665574,1.6968 L8.2962623,2.0264 L8.2962623,17.3248 C8.2962623,21.1504 8.16532787,24.3816 7.25039344,26.8208 L7.25039344,26.8208 C6.46559016,28.9312 5.02691803,30.5136 3.1962459,30.9752 L3.1962459,30.9752 L1.23383607,30.712 L0.645032787,30.6456 C0.906901639,31.304 1.49570492,31.8984 2.21544262,32.0304 L2.21544262,32.0304 L2.8685082,32.096 C5.74585246,32.096 7.64319672,29.2608 8.2962623,27.7448 L8.2962623,27.7448 C9.27786885,25.568 9.73493443,22.4032 9.73493443,17.9192 L9.73493443,17.9192 L9.73493443,0.0488 L6.72665574,1.6968 Z" id="path-39"></path>
        <path d="M8.06331148,1.6488 L9.69798361,1.9784 L9.69798361,18.8592 C9.69798361,24.0688 9.17585246,27.564 7.99744262,30.004 L7.99744262,30.004 C6.95157377,32.2456 5.12009836,33.696 3.42036066,33.96 L3.42036066,33.96 L1.19608197,33.696 L0.543016393,33.6304 C1.06595082,34.5536 2.04755738,35.0144 3.02836066,35.0808 L3.02836066,35.0808 C4.40116393,35.1472 5.51290164,34.5536 6.62463934,33.828 L6.62463934,33.828 C10.024918,31.4552 11.0715902,26.1792 11.0715902,19.0576 L11.0715902,19.0576 L11.0715902,0 L8.06331148,1.6488 Z" id="path-41"></path>
        <polygon id="path-43" points="0.677003279 0.63752 10.1968197 0.63752 10.1968197 20.79992 0.677003279 20.79992"></polygon>
    </defs>
    <g id="Symbols" stroke="none" stroke-width="1" fill="none" fill-rule="evenodd">
        <g id="organism/header/no-highlight" transform="translate(-158.000000, -50.000000)">
            <g id="atom/img/logo/blue" transform="translate(158.000000, 50.735000)">
                <g id="Group-74">
                    <g id="Group-3" transform="translate(22.491803, 14.400000)">
                        <mask id="mask-2" fill="white">
                            <use xlink:href="#path-1"></use>
                        </mask>
                        <g id="Clip-2"></g>
                        <polygon id="Fill-1" fill="#1E4395" mask="url(#mask-2)" points="-3.61957377 20.7904 17.1652623 20.7904 17.1652623 -3.6952 -3.61957377 -3.6952"></polygon>
                    </g>
                    <g id="Group-6" transform="translate(34.540984, 19.200000)">
                        <mask id="mask-4" fill="white">
                            <use xlink:href="#path-3"></use>
                        </mask>
                        <g id="Clip-5"></g>
                        <polygon id="Fill-4" fill="#1E4395" mask="url(#mask-4)" points="-3.30870492 15.5952 15.5795902 15.5952 15.5795902 -3.9456 -3.30870492 -3.9456"></polygon>
                    </g>
                    <g id="Group-9" transform="translate(45.786885, 14.400000)">
                        <mask id="mask-6" fill="white">
                            <use xlink:href="#path-5"></use>
                        </mask>
                        <g id="Clip-8"></g>
                        <polygon id="Fill-7" fill="#1E4395" mask="url(#mask-6)" points="-3.24122951 20.3952 9.76144262 20.3952 9.76144262 -3.9584 -3.24122951 -3.9584"></polygon>
                    </g>
                    <g id="Group-12" transform="translate(51.409836, 15.200000)">
                        <mask id="mask-8" fill="white">
                            <use xlink:href="#path-7"></use>
                        </mask>
                        <g id="Clip-11"></g>
                        <polygon id="Fill-10" fill="#1E4395" mask="url(#mask-8)" points="-3.76336066 19.8584 10.7438525 19.8584 10.7438525 -3.9672 -3.76336066 -3.9672"></polygon>
                    </g>
                    <g id="Group-15" transform="translate(58.639344, 19.200000)">
                        <mask id="mask-10" fill="white">
                            <use xlink:href="#path-9"></use>
                        </mask>
                        <g id="Clip-14"></g>
                        <polygon id="Fill-13" fill="#1E4395" mask="url(#mask-10)" points="-3.60270492 15.7928 13.1279836 15.7928 13.1279836 -3.9456 -3.60270492 -3.9456"></polygon>
                    </g>
                    <g id="Group-18" transform="translate(68.278689, 14.400000)">
                        <mask id="mask-12" fill="white">
                            <use xlink:href="#path-11"></use>
                        </mask>
                        <g id="Clip-17"></g>
                        <polygon id="Fill-16" fill="#1E4395" mask="url(#mask-12)" points="-3.49747541 20.5928 14.5409508 20.5928 14.5409508 -3.8928 -3.49747541 -3.8928"></polygon>
                    </g>
                    <g id="Group-21" transform="translate(78.721311, 14.400000)">
                        <mask id="mask-14" fill="white">
                            <use xlink:href="#path-13"></use>
                        </mask>
                        <g id="Clip-20"></g>
                        <polygon id="Fill-19" fill="#1E4395" mask="url(#mask-14)" points="-3.34645902 20.3288 17.5042459 20.3288 17.5042459 -3.6952 -3.34645902 -3.6952"></polygon>
                    </g>
                    <g id="Group-24" transform="translate(92.377049, 19.200000)">
                        <mask id="mask-16" fill="white">
                            <use xlink:href="#path-15"></use>
                        </mask>
                        <g id="Clip-23"></g>
                        <polygon id="Fill-22" fill="#1E4395" mask="url(#mask-16)" points="-3.85734426 15.7928 12.8733443 15.7928 12.8733443 -3.9456 -3.85734426 -3.9456"></polygon>
                    </g>
                    <g id="Group-27" transform="translate(101.213115, 18.400000)">
                        <mask id="mask-18" fill="white">
                            <use xlink:href="#path-17"></use>
                        </mask>
                        <g id="Clip-26"></g>
                        <polygon id="Fill-25" fill="#1E4395" mask="url(#mask-18)" points="-3.66857377 16.3952 13.9119836 16.3952 13.9119836 -3.2112 -3.66857377 -3.2112"></polygon>
                    </g>
                    <g id="Group-30" transform="translate(110.049180, 14.400000)">
                        <mask id="mask-20" fill="white">
                            <use xlink:href="#path-19"></use>
                        </mask>
                        <g id="Clip-29"></g>
                        <polygon id="Fill-28" fill="#1E4395" mask="url(#mask-20)" points="-3.34886885 20.3952 9.71967213 20.3952 9.71967213 -3.8264 -3.34886885 -3.8264"></polygon>
                    </g>
                    <g id="Group-33" transform="translate(114.868852, 15.200000)">
                        <mask id="mask-22" fill="white">
                            <use xlink:href="#path-21"></use>
                        </mask>
                        <g id="Clip-32"></g>
                        <polygon id="Fill-31" fill="#1E4395" mask="url(#mask-22)" points="-3.26372131 19.8584 11.3093607 19.8584 11.3093607 -3.9672 -3.26372131 -3.9672"></polygon>
                    </g>
                    <g id="Group-36" transform="translate(121.295082, 14.400000)">
                        <mask id="mask-24" fill="white">
                            <use xlink:href="#path-23"></use>
                        </mask>
                        <g id="Clip-35"></g>
                        <polygon id="Fill-34" fill="#1E4395" mask="url(#mask-24)" points="-3.28139344 20.3288 15.5418361 20.3288 15.5418361 -3.8928 -3.28139344 -3.8928"></polygon>
                    </g>
                    <g id="Group-39" transform="translate(132.540984, 19.200000)">
                        <mask id="mask-26" fill="white">
                            <use xlink:href="#path-25"></use>
                        </mask>
                        <g id="Clip-38"></g>
                        <polygon id="Fill-37" fill="#1E4395" mask="url(#mask-26)" points="-3.40991803 15.9248 12.9279672 15.9248 12.9279672 -3.8792 -3.40991803 -3.8792"></polygon>
                    </g>
                    <g id="Group-42" transform="translate(142.180328, 19.200000)">
                        <mask id="mask-28" fill="white">
                            <use xlink:href="#path-27"></use>
                        </mask>
                        <g id="Clip-41"></g>
                        <polygon id="Fill-40" fill="#1E4395" mask="url(#mask-28)" points="-3.95936066 15.7928 13.6211967 15.7928 13.6211967 -3.9456 -3.95936066 -3.9456"></polygon>
                    </g>
                    <g id="Group-45" transform="translate(151.819672, 19.200000)">
                        <mask id="mask-30" fill="white">
                            <use xlink:href="#path-29"></use>
                        </mask>
                        <g id="Clip-44"></g>
                        <polygon id="Fill-43" fill="#1E4395" mask="url(#mask-30)" points="-3.78906557 15.5952 11.6989508 15.5952 11.6989508 -3.9456 -3.78906557 -3.9456"></polygon>
                    </g>
                    <g id="Group-48" transform="translate(159.049180, 19.200000)">
                        <mask id="mask-32" fill="white">
                            <use xlink:href="#path-31"></use>
                        </mask>
                        <g id="Clip-47"></g>
                        <polygon id="Fill-46" fill="#1E4395" mask="url(#mask-32)" points="-3.56334426 15.8584 13.1673443 15.8584 13.1673443 -3.9456 -3.56334426 -3.9456"></polygon>
                    </g>
                    <g id="Group-51" transform="translate(167.081967, 16.000000)">
                        <mask id="mask-34" fill="white">
                            <use xlink:href="#path-33"></use>
                        </mask>
                        <g id="Clip-50"></g>
                        <polygon id="Fill-49" fill="#1E4395" mask="url(#mask-34)" points="-3.87903279 7.9808 7.61990164 7.9808 7.61990164 -3.5144 -3.87903279 -3.5144"></polygon>
                    </g>
                    <g id="Group-54" transform="translate(0.000000, 4.800000)">
                        <mask id="mask-36" fill="white">
                            <use xlink:href="#path-35"></use>
                        </mask>
                        <g id="Clip-53"></g>
                        <polygon id="Fill-52" fill="#1E4395" mask="url(#mask-36)" points="-4.01639344 29.9288 11.0788197 29.9288 11.0788197 -3.9208 -4.01639344 -3.9208"></polygon>
                    </g>
                    <g id="Group-57" transform="translate(1.606557, 3.200000)">
                        <mask id="mask-38" fill="white">
                            <use xlink:href="#path-37"></use>
                        </mask>
                        <g id="Clip-56"></g>
                        <polygon id="Fill-55" fill="#999FA3" mask="url(#mask-38)" points="-3.39947541 33.112 12.284541 33.112 12.284541 -3.9688 -3.39947541 -3.9688"></polygon>
                    </g>
                    <g id="Group-60" transform="translate(3.213115, 1.600000)">
                        <mask id="mask-40" fill="white">
                            <use xlink:href="#path-39"></use>
                        </mask>
                        <g id="Clip-59"></g>
                        <polygon id="Fill-58" fill="#999FA3" mask="url(#mask-40)" points="-3.37136066 36.096 13.7513279 36.096 13.7513279 -3.952 -3.37136066 -3.952"></polygon>
                    </g>
                    <g id="Group-63" transform="translate(4.819672, 0.000000)">
                        <mask id="mask-42" fill="white">
                            <use xlink:href="#path-41"></use>
                        </mask>
                        <g id="Clip-62"></g>
                        <polygon id="Fill-61" fill="#999FA3" mask="url(#mask-42)" points="-3.47337705 39.0856 15.0879836 39.0856 15.0879836 -4 -3.47337705 -4"></polygon>
                    </g>
                    <polygon id="Fill-64" fill="#B2B9BB" points="180.51841 36 181.518492 36 181.518492 9 180.51841 9"></polygon>
                    <polygon id="Fill-65" fill="#1E4395" points="207.369607 32 208.976164 32 208.976164 17.6 207.369607 17.6"></polygon>
                    <polygon id="Fill-66" fill="#1E4395" points="207.369607 14.4 208.970541 14.4 208.970541 11.2 207.369607 11.2"></polygon>
                    <polygon id="Fill-67" fill="#B2B9BB" points="193.942803 11.83752 195.916459 11.83752 195.916459 30.29432 203.448 30.29432 203.448 31.99992 193.942803 31.99992"></polygon>
                    <g id="Group-73" transform="translate(213.672131, 11.200000)">
                        <path d="M0.00433770492,7.02656 L1.65748525,7.02656 L1.83099344,8.99216 C2.31376393,8.23056 2.86240328,7.66016 3.47530492,7.27856 C4.08820656,6.89856 4.76778033,6.70816 5.51081311,6.70816 C6.68922295,6.70816 7.60656721,7.10336 8.26364918,7.89376 C8.91992787,8.68336 9.24846885,9.73856 9.24846885,11.05856 L9.24846885,20.80016 L7.42020656,20.80016 L7.42020656,11.05856 C7.42020656,10.24896 7.2073377,9.60416 6.7816,9.12176 C6.3558623,8.64016 5.80400984,8.39936 5.1268459,8.39936 C4.20789508,8.39936 3.42951803,8.80176 2.79091148,9.60656 C2.15230492,10.41056 1.8326,11.33856 1.8326,12.38816 L1.8326,20.80016 L0.00433770492,20.80016 L0.00433770492,7.02656 Z" id="Fill-68" fill="#B2B9BB"></path>
                        <g id="Group-72" transform="translate(12.852459, 0.000000)">
                            <mask id="mask-44" fill="white">
                                <use xlink:href="#path-43"></use>
                            </mask>
                            <g id="Clip-71"></g>
                            <polygon id="Fill-70" fill="#B2B9BB" mask="url(#mask-44)" points="0.677003279 0.63752 2.50526557 0.63752 2.50526557 13.08232 7.40365902 7.02632 9.53636393 7.02632 5.23400328 12.08552 10.1974623 20.79992 7.99085574 20.79992 4.11182295 13.40472 2.50526557 15.29352 2.50526557 20.79992 0.677003279 20.79992"></polygon>
                        </g>
                    </g>
                </g>
            </g>
        </g>
    </g>
</svg>