<?xml version="1.0" standalone="no"?>
<!DOCTYPE svg PUBLIC "-//W3C//DTD SVG 1.1//EN" "http://www.w3.org/Graphics/SVG/1.1/DTD/svg11.dtd" >
<svg xmlns="http://www.w3.org/2000/svg">
<metadata>Generated by IcoMoon</metadata>
<defs>
<font id="icomoon" horiz-adv-x="1024">
<font-face units-per-em="1024" ascent="960" descent="-64" />
<missing-glyph horiz-adv-x="1024" />
<glyph unicode="&#x20;" horiz-adv-x="512" d="" />
<glyph unicode="&#xe900;" glyph-name="arrow-breadcrumb" horiz-adv-x="589" d="M585.143 448l-585.143-512v1024z" />
<glyph unicode="&#xe901;" glyph-name="arrow-circle-down" d="M510.125-60.249c-282.069 0-510.125 228.056-510.125 510.125s228.056 510.125 510.125 510.125c282.069 0 510.125-228.056 510.125-510.125s-228.056-510.125-510.125-510.125zM510.125 929.993c-264.064 0-480.117-216.053-480.117-480.117s216.053-480.117 480.117-480.117c264.064 0 480.117 216.053 480.117 480.117s-216.053 480.117-480.117 480.117zM760.686 571.405l-24.006 21.005-225.055-237.058-228.056 219.053-21.005-21.005 249.061-240.059 21.005 21.005z" />
<glyph unicode="&#xe902;" glyph-name="arrow-circle-up" d="M510.125 956.249c-282.069 0-510.125-228.056-510.125-510.125s228.056-510.125 510.125-510.125c282.069 0 510.125 228.056 510.125 510.125s-228.056 510.125-510.125 510.125zM510.125-33.993c-264.064 0-480.117 216.053-480.117 480.117s216.053 480.117 480.117 480.117c264.064 0 480.117-216.053 480.117-480.117s-216.053-480.117-480.117-480.117zM760.686 324.595l-24.006-21.005-225.055 237.058-228.056-219.053-21.005 21.005 249.061 240.059 21.005-21.005z" />
<glyph unicode="&#xe903;" glyph-name="arrow-down" d="M910.222 755.2l99.019-99.019-504.621-504.621-504.621 504.621 99.019 99.019 405.602-405.611z" />
<glyph unicode="&#xe904;" glyph-name="arrow-up" d="M99.019 151.56l-99.019 99.019 504.621 504.621 504.621-504.621-99.019-99.019-405.602 405.611z" />
<glyph unicode="&#xe905;" glyph-name="checkmark" d="M908.373 857.6l108.344-106.187-699.472-713.678-317.244 302.254 104.644 109.834 208.934-199.074z" />
<glyph unicode="&#xe906;" glyph-name="claims" d="M1002.995 800.164c-2.626 10.503-13.128 18.379-26.256 18.379h-110.277c-5.251 34.133-18.379 70.892-36.759 107.651-5.251 7.877-15.754 15.754-26.256 15.754h-695.795c-7.877 0-18.379-5.251-23.631-10.503-2.626-7.877-5.251-18.379 0-26.256 70.892-139.159 26.256-254.687-21.005-378.092-49.887-126.031-99.774-259.938-18.379-414.851 5.251-7.877 15.754-15.754 26.256-15.754h107.651c5.251-36.759 18.379-70.892 36.759-107.651 5.251-7.877 15.754-15.754 26.256-15.754h664.287c15.754 0 31.508 7.877 39.385 18.379s10.503 26.256 5.251 39.385c-81.395 204.8-36.759 309.826 10.503 420.103 39.385 97.149 78.769 194.297 42.010 349.21zM84.021 146.379c-63.015 133.908-18.379 246.81 28.882 364.964 44.636 118.154 91.897 238.933 34.133 380.718h640.656c63.015-133.908 18.379-246.81-26.256-364.964s-91.897-238.933-34.133-380.718h-643.282zM897.969 22.974h-643.282c-10.503 23.631-18.379 49.887-23.631 73.518h533.005c7.877 0 18.379 5.251 23.631 10.503 5.251 7.877 5.251 15.754 2.626 23.631-70.892 139.159-26.256 254.687 21.005 378.092 31.508 84.021 65.641 168.041 60.39 259.938h81.395c26.256-131.282-7.877-212.677-44.636-299.323-44.636-110.277-94.523-225.805-10.503-446.359zM630.154 317.046h-183.795c-15.754 0-26.256-10.503-26.256-26.256s10.503-26.256 26.256-26.256h183.795c15.754 0 26.256 10.503 26.256 26.256s-10.503 26.256-26.256 26.256zM630.154 448.328h-183.795c-15.754 0-26.256-10.503-26.256-26.256s10.503-26.256 26.256-26.256h183.795c15.754 0 26.256 10.503 26.256 26.256s-10.503 26.256-26.256 26.256zM317.703 385.313c-13.128 10.503-26.256 15.754-57.764 23.631v55.138c13.128 0 26.256-13.128 26.256-31.508h47.262c-2.626 39.385-28.882 63.015-73.518 68.267v26.256h-18.379v-23.631c-26.256-2.626-36.759-7.877-52.513-18.379-15.754-13.128-23.631-28.882-23.631-52.513 0-34.133 18.379-52.513 63.015-63.015 2.626 0 5.251 0 5.251-2.626 2.626 0 5.251-2.626 5.251-2.626s0 0 2.626 0v-65.641c-21.005 5.251-34.133 18.379-34.133 42.010v0h-49.887c5.251-49.887 31.508-76.144 81.395-78.769v-26.256h18.379v26.256c31.508 2.626 47.262 10.503 63.015 26.256 13.128 13.128 18.379 26.256 18.379 44.636 2.626 23.631-5.251 42.010-21.005 52.513zM238.933 414.195c-23.631 5.251-28.882 10.503-28.882 26.256s10.503 26.256 28.882 26.256v-52.513zM259.938 301.292v60.39c26.256-7.877 36.759-13.128 36.759-28.882-2.626-15.754-13.128-26.256-36.759-31.508zM317.703 579.61h391.221c15.754 0 28.882 10.503 28.882 23.631v162.79c-2.626 13.128-15.754 23.631-31.508 23.631h-388.595c-15.754 0-28.882-10.503-28.882-23.631v-162.79c0-13.128 13.128-23.631 28.882-23.631zM343.959 742.4h336.082v-118.154h-336.082v118.154z" />
<glyph unicode="&#xe907;" glyph-name="close" d="M512-49.371c-275.017 0-497.371 222.354-497.371 497.371s222.354 497.371 497.371 497.371c275.017 0 497.371-222.354 497.371-497.371s-222.354-497.371-497.371-497.371zM512 916.114c-257.463 0-468.114-210.651-468.114-468.114s210.651-468.114 468.114-468.114c257.463 0 468.114 210.651 468.114 468.114s-210.651 468.114-468.114 468.114zM552.96 427.52l-5.851 5.851 166.766 163.84-23.406 23.406-160.914-163.84-157.989 181.394-20.48-20.48 152.137-178.469h-2.926l5.851-5.851-166.766-163.84 23.406-23.406 160.914 163.84 157.989-181.394 20.48 20.48-152.137 178.469z" />
<glyph unicode="&#xe908;" glyph-name="coverage" d="M511.977 960c142.053 0 272.66-55.805 367.799-157.025 93.013-98.997 144.224-232.067 144.224-374.756 0-9.573-0.407-12.704-1.041-17.467-0.407-2.586-0.86-5.853-1.402-13.611-0.995-13.339-12.079-23.638-25.379-23.683v0c-13.572 0.091-24.61 10.617-25.379 24.001-1.493 23.865-15.562 101.765-134.995 101.765-65.462 0-135.402-28.991-135.402-110.249 0-14.11-11.4-25.543-25.425-25.543-14.070 0-25.47 11.433-25.47 25.543 0 68.735-50.035 99.95-105.137 107.981v0-469.897c0-50.225-40.761-91.058-90.841-91.058s-90.841 40.833-90.841 91.058v0 34.935c0 14.11 11.355 25.498 25.425 25.498s25.47-11.388 25.47-25.498v0-34.935c0-22.050 17.915-40.016 39.947-40.016s39.947 17.967 39.947 40.016v0 471.031c-40.309-3.947-108.756-22.050-114.275-99.36-0.95-13.384-11.989-23.774-25.379-23.774-13.346 0-24.429 10.39-25.379 23.774-6.605 93.19-104.911 100.494-134.905 100.494-64.331 0-139.519-28.901-139.519-110.249 0-13.702-10.767-24.908-24.384-25.543v0h-1.086c-13.165 0-24.203 10.072-25.379 23.32-0.633 7.804-1.221 12.704-1.719 16.651-0.86 7.259-1.448 12.477-1.448 24.817 0 143.732 51.392 277.301 144.722 375.981 94.958 100.449 225.384 155.8 367.256 155.8zM511.977 908.959c-127.757 0-245.063-49.68-330.34-139.876-67.317-71.185-110.475-162.697-125.133-263.191 1.9 1.633 3.891 3.176 5.926 4.764 33.749 25.498 80.346 39.608 131.105 39.608 49.13 0 92.244-12.295 124.59-35.525 14.341-10.254 26.239-22.458 35.694-36.296 9.455 13.838 21.398 26.042 35.739 36.296 32.346 23.229 75.415 35.525 124.545 35.525 72.745 0 129.928-27.676 160.872-73.681 30.899 46.005 88.082 73.681 160.827 73.681 53.699 0 98.758-14.745 131.105-40.833-15.201 98.271-57.952 188.104-124.138 258.563-85.458 90.876-202.9 140.964-330.792 140.964z" />
<glyph unicode="&#xe909;" glyph-name="doctor" horiz-adv-x="998" d="M985.272-11.487c-23.631 107.651-89.272 204.8-181.169 270.441v469.99c0 26.256-5.251 49.887-13.128 73.518-7.877 28.882-23.631 52.513-42.010 70.892-31.508 31.508-86.646 65.641-175.918 39.385-107.651 44.636-254.687 47.262-341.333-81.395-34.133-47.262-49.887-107.651-49.887-170.667v-399.097c0-2.626 0-2.626 0-2.626-91.897-65.641-157.538-162.79-181.169-273.067-2.626-13.128 5.251-26.256 18.379-28.882 2.626 0 2.626 0 5.251 0 10.503 0 21.005 7.877 23.631 18.379 26.256 123.405 112.903 228.431 233.682 283.569v-112.903c-44.636-5.251-78.769-44.636-78.769-89.272v-84.021c0-7.877 5.251-13.128 13.128-13.128s13.128 5.251 13.128 13.128v84.021c0 36.759 28.882 65.641 65.641 65.641s65.641-28.882 65.641-65.641v-84.021c0-7.877 5.251-13.128 13.128-13.128s13.128 5.251 13.128 13.128v84.021c0 44.636-34.133 81.395-78.769 89.272v128.656c7.877 2.626 18.379 7.877 26.256 10.503l131.282-202.174c5.251-10.503 15.754-15.754 28.882-15.754v0c10.503 0 21.005 5.251 28.882 15.754l131.282 202.174c7.877-2.626 18.379-5.251 26.256-10.503v-181.169c-31.508-5.251-55.138-34.133-55.138-65.641 0-36.759 31.508-68.267 68.267-68.267s68.267 31.508 68.267 68.267c0 34.133-23.631 60.39-55.138 65.641v170.667c120.779-57.764 207.426-160.164 233.682-283.569 2.626-13.128 15.754-21.005 28.882-18.379 7.877-2.626 18.379 10.503 15.754 26.256zM491.651 127.672l-115.528 181.169c13.128 18.379 18.379 36.759 23.631 52.513 13.128-10.503 28.882-18.379 44.636-23.631s31.508-7.877 47.262-7.877c15.754 0 31.508 2.626 47.262 10.503 13.128 5.251 31.508 13.128 47.262 26.256 2.626-15.754 10.503-36.759 23.631-52.513l-118.154-186.421zM344.615 526.769v107.651c65.641 2.626 212.677 15.754 273.067 99.774l15.754-26.256c5.251-7.877 7.877-18.379 7.877-26.256v-152.287c-21.005-91.897-84.021-131.282-120.779-147.036-18.379-7.877-39.385-7.877-57.764 0-89.272 34.133-115.528 133.908-118.154 144.41zM733.21 25.272c0-23.631-18.379-42.010-42.010-42.010s-42.010 18.379-42.010 42.010c0 23.631 18.379 42.010 42.010 42.010 21.005 0 42.010-18.379 42.010-42.010zM754.215 290.462c-31.508 18.379-65.641 34.133-102.4 44.636-18.379 26.256-18.379 57.764-18.379 68.267 23.631 28.882 44.636 65.641 55.138 112.903 0 2.626 0 5.251 0 10.503v154.913c0 18.379-5.251 36.759-13.128 52.513l-39.385 68.267c-5.251 7.877-15.754 13.128-23.631 13.128-10.503-2.626-18.379-7.877-21.005-18.379-23.631-105.026-220.554-110.277-259.938-110.277-21.005 0-36.759-15.754-36.759-36.759v-120.779c0 0 0-2.626 0-2.626s0-2.626 0-2.626 13.128-63.015 55.138-115.528c0-10.503 2.626-42.010-18.379-68.267-36.759-10.503-70.892-26.256-105.026-44.636v364.964c0 55.138 13.128 102.4 39.385 144.41 89.272 131.282 238.933 84.021 280.944 65.641 10.503-5.251 23.631-5.251 34.133-2.626 52.513 15.754 91.897 5.251 126.031-28.882 13.128-13.128 23.631-31.508 31.508-52.513 5.251-18.379 10.503-39.385 10.503-60.39v-435.856h5.251zM420.759 563.528h13.128c7.877 0 15.754 7.877 15.754 15.754s-7.877 15.754-15.754 15.754h-13.128c-7.877 0-15.754-7.877-15.754-15.754 2.626-7.877 7.877-15.754 15.754-15.754zM546.79 563.528h13.128c7.877 0 15.754 7.877 15.754 15.754s-7.877 15.754-15.754 15.754h-13.128c-7.877 0-15.754-7.877-15.754-15.754s7.877-15.754 15.754-15.754z" />
<glyph unicode="&#xe90a;" glyph-name="error" d="M447.444 828.652c44.636 72.699 84.884 72.74 129.449 0.077 140.682-229.381 281.329-458.783 421.996-688.169 8.33-13.583 16.737-27.105 25.108-40.663v0-35.84c-16.481-22.4-39.357-30.136-66.284-30.136-297.139 0.138-594.284 0.138-891.423 0-26.936-0.010-49.807 7.741-66.294 30.136v0 35.84c149.151 242.924 298.296 485.842 447.447 728.755zM510.83 263.215c-34.309-0.645-59.633-28.058-58.967-63.816 0.66-35.574 24.433-59.228 59.602-59.321 36.147-0.092 60.764 24.976 60.221 61.323-0.543 36.147-26.45 62.464-60.856 61.814zM513.359 684.079c-23.547 0.947-42.793-17.623-48.108-47.114-1.5-8.31-2.36-16.916-2.084-25.339 2.422-73.989 4.905-147.978 8.059-221.937 0.568-13.44 1.080-28.529 7.322-39.66 7.608-13.563 21.253-23.741 32.282-35.379 11.167 11.305 26.225 20.813 32.471 34.386 7.148 15.519 8.207 34.58 8.812 52.214v0l6.487 107.136c0 41.667 1.347 83.405-0.461 125-1.254 28.81-21.996 49.772-44.78 50.693z" />
<glyph unicode="&#xe90b;" glyph-name="external-link" d="M429.937 24.504c-92.839 0-185.678-0.143-278.517 0.048-87.295 0.183-149.202 56.736-150.054 143.751-1.859 191.421-1.773 382.885-0.043 574.312 0.734 81.556 64.081 140.171 145.415 140.396 117.836 0.322 235.667 0.161 353.503 0.038 42.041-0.048 70.852-26.221 70.766-63.666-0.086-35.319-28.698-62.512-69.85-62.759-111.58-0.682-223.166-0.225-334.746 0.059-36.277 0.097-38.575-1.594-38.581-36.666-0.032-178.023-0.037-356.047 0.016-534.070 0.011-32.973 1.403-34.493 35.062-34.509 178.533-0.075 357.065-0.054 535.603 0.054 32.764 0.021 34.788 2.26 34.831 35.174 0.080 50.993-0.246 101.985 0.145 152.973 0.295 38.411 24.087 64.245 59.411 65.657s64.349-22.646 65.046-60.016c1.264-67.912 1.778-136.065-2.576-203.783-4.022-62.49-67.799-116.113-133.53-116.687-97.295-0.859-194.601-0.22-291.902-0.22v-0.086zM801.87 755.098c-22.657 0-39.317-0.444-55.949 0.087-42.753 1.37-71.36 27.91-71.176 65.512 0.173 36.389 30.46 62.328 73.316 62.404 69.296 0.125 138.597 0.141 207.898 0 40.041-0.087 67.961-27.266 68.020-67.206 0.119-70.33-0.27-140.66-0.962-210.98-0.265-27.082-10.742-49.664-35.842-62.036-21.528-10.612-46.087-12.101-63.244 4.997-13.417 13.368-22.965 33.319-27.688 52.009-4.636 18.343-1.010 38.782-1.010 63.698-10.861-10.065-17.999-16.237-24.651-22.897-119.063-119.177-238.185-238.3-356.977-357.747-18.118-18.224-38.171-30.823-64.513-26.497-43.98 7.223-66.815 58.1-43.288 96.221 6.052 9.8 14.622 18.23 22.846 26.486 116.377 116.762 232.905 233.378 349.342 350.092 6.711 6.73 12.925 13.958 23.878 25.858z" />
<glyph unicode="&#xe90c;" glyph-name="favorite-active" d="M512 138.105l-316.785-166.544 60.501 352.746-256.285 249.816 354.177 51.465 158.393 320.939 158.393-320.939 354.177-51.465-256.285-249.816 60.501-352.746z" />
<glyph unicode="&#xe90e;" glyph-name="fill-check" d="M512.458 954.345c282.92-0.068 511.186-226.955 511.312-508.221 0.125-282.941-228.136-510.003-512.609-509.896-282.891 0.102-511.084 227.045-511.164 508.357-0.074 283.365 227.578 509.822 512.461 509.76zM731.292 641.126c-27.87 8.005-49.391-3.672-68.631-22.947-71.344-71.476-142.973-142.658-219.648-219.085-29.082 30.426-55.006 59.047-82.751 85.801-10.377 10.008-24.104 18.941-37.86 22.613-28.035 7.49-54.204-5.205-67.937-28.678-15.189-25.962-12.14-53.542 11.031-77.496 41.341-42.742 84.577-83.691 125.241-127.044 31.607-33.69 67.447-37.005 100.87-4.781 29.918 28.836 59.062 58.459 88.519 87.758 58.914 58.606 118.289 116.764 176.543 176.009 36.921 37.543 23.177 93.902-25.378 107.848z" />
<glyph unicode="&#xe90f;" glyph-name="fill-info" d="M512 960c282.413 0 512-229.587 512-512s-229.587-512-512-512c-282.413 0-512 229.587-512 512s229.587 512 512 512zM543.898 549.181h-64.406v-393.752h64.406v393.752zM512 731.632c-23.771 0-44.089-21.333-44.089-46.527 0-25.397 20.521-46.527 43.276-46.527 24.381 0 44.902 21.13 44.902 46.527s-19.708 46.527-44.089 46.527z" />
<glyph unicode="&#xe910;" glyph-name="fill-plus" d="M511.858 960.001c282.696 0 511.861-229.165 511.861-511.855 0-282.696-229.165-511.861-511.861-511.861-282.69 0-511.861 229.165-511.861 511.861 0 282.69 229.171 511.855 511.861 511.855zM564.136 713.301h-105.315c0-65.289-0.494-128.783 0.343-192.259 0.211-16.065-4.638-21.034-20.649-20.582-37.099 1.066-74.252 0.337-111.381 0.337v0h-80.818v-105.309c65.295 0 128.789-0.494 192.265 0.337 16.065 0.211 21.034-4.632 20.576-20.649-1.060-37.099-0.337-74.252-0.337-111.381v0-80.812h105.321c0 65.289 0.488 128.783-0.349 192.259-0.205 16.065 4.638 21.034 20.655 20.582 37.099-1.066 74.246-0.337 111.381-0.337v0h81.571v105.309c-66.048 0-129.542 0.494-193.018-0.337-16.065-0.211-21.040 4.632-20.582 20.643 1.066 37.105 0.337 74.258 0.337 111.387v0 80.812z" />
<glyph unicode="&#xe911;" glyph-name="fill-search" d="M506.356 954.824c279.631-1.328 505.636-228.701 503.961-507-1.713-278.252-231.284-505.356-508.801-503.309-278.040 2.042-502.232 228.602-501.515 506.823 0.724 280.444 226.356 504.792 506.355 503.487zM605.667 663.007c-86.382 62.922-206.329 55.548-285.751-17.562-79.655-73.338-95.922-193.736-38.618-285.88 64.451-103.639 171.795-129.451 313.911-73.877 27.621-28.030 55.843-57.035 84.48-85.625 23.092-23.061 52.63-25.88 70.825-7.411 19.21 19.511 16.257 40.991-9.603 67.011-27.885 28.051-55.983 55.885-83.278 83.107 65.943 138.178 47.604 247.714-51.967 320.238zM473.024 632.205c83.117 0.129 151.128-67.317 152.061-150.792 0.928-83.355-69.389-154.020-152.579-153.331-82.879 0.689-150.309 69.146-150.227 152.517 0.083 83.438 67.731 151.475 150.745 151.605zM322.279 480.6c0.083 83.438 67.731 151.475 150.745 151.605 83.117 0.129 151.128-67.317 152.061-150.792 0.928-83.355-69.389-154.020-152.579-153.331-82.879 0.689-150.309 69.146-150.227 152.517z" />
<glyph unicode="&#xe912;" glyph-name="flag-active" horiz-adv-x="768" d="M642.296 537.692c-50.716 49.701-94.9 92.709-138.738 136.056-37.495 37.081-37.366 44.513 0.557 82.178 43.633 43.32 87.457 86.464 137.154 135.568h-576.309v-353.802h577.335zM725.81 541.95c14.513-14.39 35.218-30.53 20.746-50.963-8.592-12.132-32.159-19.063-49.051-19.178-198.155-1.275-396.323-0.821-594.492-0.821h-39.922v-534.989h-63.094v37.881c0 308.407 0 616.814 0.020 925.228 0.007 54.347 4.412 58.883 57.194 58.89 212.892 0.034 425.777 0.509 638.656-0.875 17.619-0.115 35.157-12.885 52.728-19.768-7.987-17.218-12.222-37.976-24.621-51.017-54.482-57.303-111.323-112.369-171.4-172.33 59.567-59.182 116.36-115.658 173.235-172.059zM673.684 528.842h-619.789v377.263h618.688c-53.351-52.361-100.398-98.365-147.239-144.558-40.712-40.162-40.851-48.087-0.598-87.627 47.061-46.221 94.494-92.081 148.94-145.078z" />
<glyph unicode="&#xe913;" glyph-name="flag-inactive" horiz-adv-x="768" d="M695.867 957.125c17.619-0.115 35.157-12.885 52.728-19.768-7.987-17.218-12.222-37.976-24.621-51.017-54.482-57.303-111.323-112.369-171.4-172.33 59.567-59.182 116.36-115.658 173.235-172.059 14.513-14.39 35.218-30.53 20.746-50.963-8.592-12.132-32.159-19.063-49.051-19.178-198.155-1.275-396.323-0.821-594.492-0.821h-39.922v-534.989h-63.093l0.019 963.109c0.007 54.347 4.412 58.883 57.194 58.89 212.892 0.034 425.777 0.509 638.656-0.875zM641.269 891.494h-576.309v-353.802h577.335c-50.716 49.701-94.9 92.709-138.738 136.056-37.495 37.081-37.366 44.513 0.557 82.178 43.633 43.32 87.457 86.464 137.154 135.568z" />
<glyph unicode="&#xe914;" glyph-name="future" d="M908.485 776.422c0 20.469-0.574 40.96 0.123 61.408 1.281 37.392 24.962 62.901 56.647 62.011 31.749-0.889 53.291-26.732 53.361-64.501 0.111-64.663 0.188-129.326-0.021-193.989-0.129-39.171-21.338-62.248-60.818-62.884-66.989-1.078-134.015-0.895-201.010-0.070-32.168 0.399-54.465 23.622-55.044 54.051-0.584 30.564 20.518 54.612 52.422 56.891 22.871 1.633 45.951 0.313 74.516 0.313-51.082 59.926-106.169 104.723-174.906 130.986-241.514 92.289-497.358-55.339-539.938-311.35-40.376-242.774 153.369-466.319 399.757-461.237 196.447 4.047 356.298 142.18 388.075 335.344 6.782 41.229 31.975 61.44 67.766 54.358 31.69-6.263 47.034-34.158 39.99-72.693-40.531-221.75-198.661-381.402-417.385-421.403-259.914-47.535-524.138 131.46-580.125 392.99-62.024 289.749 124.714 569.053 415.717 616.141 161.111 26.069 303.876-19.354 425.024-129.994 16.984-15.506 31.331-33.943 46.895-51.028l8.953 4.657zM409.703 575.271c0 38.948-0.279 77.89 0.083 116.838 0.333 35.318 25.148 61.715 58.448 63.039 33.491 1.33 61.681-23.207 62.721-58.993 1.682-57.902 1.61-115.896 0.202-173.804-0.475-19.782 5.924-28.726 25.784-33.292 37.371-8.595 74.332-18.932 111.216-29.359 37.49-10.599 55.798-39.313 46.059-70.465-10.613-33.931-41.721-50.665-79.145-40.854-58.965 15.462-117.717 31.682-176.361 48.211-35.184 9.92-48.667 27.396-48.935 61.841-0.309 38.948-0.071 77.89-0.071 116.838z" />
<glyph unicode="&#xe915;" glyph-name="id-card" d="M311.536 624.894c7.524 0 13.624-6.099 13.624-13.624v-224.479c0-7.569-6.233-13.757-13.802-13.757h-172.833c-7.569 0-13.713 6.189-13.713 13.757v224.479c0 7.524 6.055 13.624 13.579 13.624h173.145zM300.050 599.828h-150.261v-201.773h150.261v201.773zM588.88 547.947h-175.638c-6.99 0-12.6 5.61-12.6 12.511s5.61 12.511 12.6 12.511h175.638c6.901 0 12.511-5.61 12.511-12.511s-5.61-12.511-12.511-12.511zM588.88 423.513h-175.638c-6.99 0-12.6 5.61-12.6 12.511 0 6.945 5.61 12.511 12.6 12.511h175.638c6.901 0 12.511-5.565 12.511-12.511 0-6.901-5.61-12.511-12.511-12.511zM863.619 547.947h-174.97c-6.856 0-12.511 5.61-12.511 12.511s5.654 12.511 12.511 12.511h174.97c6.856 0 12.466-5.61 12.466-12.511s-5.61-12.511-12.466-12.511zM863.619 423.513h-174.97c-6.856 0-12.511 5.61-12.511 12.511 0 6.945 5.654 12.511 12.511 12.511h174.97c6.856 0 12.466-5.565 12.466-12.511 0-6.901-5.61-12.511-12.466-12.511zM138.832 272.687c-6.856 0-12.466 5.61-12.466 12.511 0 6.945 5.61 12.511 12.466 12.511h725.526c6.901 0 12.511-5.565 12.511-12.511 0-6.901-5.61-12.511-12.511-12.511h-725.526zM925.313 749.078c41.405 0 75.108-33.703 75.108-75.108v-450.827c0-41.405-33.703-75.108-75.108-75.108h-850.232c-41.361 0-75.064 33.703-75.064 75.108v450.827c0 41.405 33.703 75.108 75.064 75.108h850.232zM925.313 698.991h-850.232c-13.757 0-24.977-11.264-24.977-25.021v-450.827c0-13.802 11.219-25.021 24.977-25.021h850.232c13.802 0 25.021 11.219 25.021 25.021v450.827c0 13.757-11.219 25.021-25.021 25.021z" />
<glyph unicode="&#xe916;" glyph-name="insurance" horiz-adv-x="691" d="M345.394 942.496c53.651 0 97.236-43.629 97.236-97.236 0-0.088-0.088-0.175-0.088-0.263v0h73.299c13.566 0 24.594-11.071 24.594-24.637v0-52.119h122.792c13.61 0 24.594-10.984 24.594-24.594v0-761.611c0-13.653-10.984-24.637-24.594-24.637v0h-638.643c-13.566 0-24.594 10.984-24.594 24.637v0 761.611c0 13.61 11.028 24.594 24.594 24.594v0h122.486v52.119c0 13.566 11.028 24.637 24.637 24.637v0h76.625c0 0.088-0.044 0.175-0.044 0.263 0 53.607 43.586 97.236 97.105 97.236zM147.071 719.010h-97.849v-712.38h589.413v712.38h-98.199v-23.237c0-13.61-11.028-24.637-24.594-24.637v0h-344.134c-13.61 0-24.637 11.028-24.637 24.637v0 23.237zM345.394 893.265c-26.431 0-47.874-21.53-47.874-48.005v0l-0.088-0.263h96.011l-0.044 0.263c0 26.475-21.53 48.005-48.005 48.005zM247.178 573.409l-86.515-65.028-18.992 24.243c-8.358 10.721-23.85 12.516-34.527 4.245-10.721-8.402-12.603-23.937-4.201-34.571l32.12-40.829c4.070-6.258 11.334-10.721 18.817-11.422 0.788-0.088 1.488-0.088 2.276-0.088 5.514 0 11.115 1.882 15.535 5.12l105.069 78.944c10.896 8.139 13.084 23.587 4.901 34.483-8.139 10.853-23.631 13.041-34.483 4.901zM368.631 513.238c0-13.653 11.028-24.594 24.594-24.594h171.804c13.61 0 24.637 10.94 24.637 24.594 0 13.61-11.028 24.594-24.637 24.594h-171.804c-13.566 0-24.594-10.984-24.594-24.594zM247.178 386.359l-86.515-65.028-18.992 24.2c-8.358 10.765-23.85 12.559-34.527 4.201-10.721-8.315-12.603-23.85-4.201-34.527l32.12-40.829c4.070-6.214 11.334-10.721 18.817-11.378 0.788-0.088 1.488-0.131 2.276-0.131 5.514 0 11.115 1.882 15.535 5.208v-0.044l105.069 78.944c10.896 8.139 13.084 23.587 4.901 34.483-8.139 10.853-23.631 12.997-34.483 4.901zM565.042 350.803h-171.804c-13.566 0-24.594-11.028-24.594-24.594 0-13.61 11.028-24.637 24.594-24.637h171.804c13.566 0 24.594 11.028 24.594 24.637 0 13.566-11.028 24.594-24.594 24.594zM247.178 199.264l-86.515-64.985-18.992 24.2c-8.358 10.721-23.85 12.559-34.527 4.157-10.721-8.315-12.603-23.85-4.201-34.483l32.12-40.829c4.070-6.258 11.334-10.765 18.817-11.378 0.788-0.088 1.488-0.175 2.276-0.175 5.514 0 11.115 1.925 15.535 5.208l105.069 78.944c10.896 8.096 13.084 23.587 4.901 34.483-8.139 10.853-23.631 13.041-34.483 4.857zM565.042 163.709h-171.804c-13.566 0-24.594-11.028-24.594-24.594 0-13.61 11.028-24.637 24.594-24.637h171.804c13.566 0 24.594 11.028 24.594 24.637 0 13.566-11.028 24.594-24.594 24.594z" />
<glyph unicode="&#xe917;" glyph-name="money" d="M511.19 618.331v-30.943c55.43-5.61 87.708-36.552 90.691-85.571h-57.166c-0.445 21.059-15.894 39.135-33.525 38.689v-71.368c38.289-9.483 55.073-16.339 71.368-29.251 18.922-14.603 29.251-36.998 29.251-64.067 0-21.949-7.747-41.227-22.795-56.721-19.322-20.257-39.981-28.85-77.824-32.679v-34.015h-23.641v34.015c-61.084 4.675-94.163 38.244-100.174 100.174h57.166v-1.336c0-27.025 15.894-46.436 43.008-52.001v81.697c-1.291 0.445-1.736 0.445-2.582 0.846-0.445 0-2.137 0.445-5.61 1.736-1.291 0.401-3.873 0.846-6.856 1.736-55.029 13.757-78.269 37.799-78.269 80.807 0 27.514 9.884 49.018 30.097 64.957 16.785 13.312 32.234 18.477 63.221 22.35v30.943h23.641zM511.19 408.5v-75.242c28.806 4.719 43.409 18.031 43.409 39.58 0 17.987-9.884 26.223-43.409 35.662zM487.549 540.507c-22.35-0.846-36.107-13.757-36.107-33.525 0-17.631 8.147-24.977 36.107-32.278v65.803zM791.815 749.083c68.252 0 130.671-7.168 190.909-21.905 11.175-2.76 19.1-12.778 19.1-24.353v-507.281c0-7.747-3.562-14.959-9.617-19.723-6.055-4.808-13.935-6.456-21.415-4.63-56.275 13.757-114.822 20.435-178.977 20.435-96.211 0-193.224-15.405-287.032-30.275-95.677-15.137-194.649-30.854-294.823-30.854h-0.045c-68.207 0-130.627 7.213-190.865 21.905-11.219 2.805-19.055 12.778-19.055 24.353v507.192c0 13.846 11.309 25.155 25.155 25.155 2.003 0 4.007-0.223 6.010-0.757 56.186-13.713 114.688-20.391 178.755-20.391 96.256 0 193.224 15.36 287.032 30.275 95.722 15.182 194.694 30.854 294.867 30.854zM791.815 698.996c-96.211 0-193.224-15.405-286.987-30.275-95.722-15.137-194.694-30.854-294.912-30.854-56.587 0-109.167 4.897-159.833 15.004v-456.214c50.399-10.774 102.934-16.072 159.833-16.072 96.256 0 193.224 15.405 287.032 30.275 95.722 15.182 194.694 30.854 294.867 30.854 56.587 0 109.212-4.853 159.922-15.048v456.259c-50.443 10.819-102.979 16.072-159.922 16.072z" />
<glyph unicode="&#xe918;" glyph-name="patient-doctor" d="M657.829 486.246h-8.64c-5.125 0-9.189 2.893-9.189 6.477s4.064 6.477 9.189 6.477h8.64c5.089 0 9.262-2.893 9.262-6.477s-4.174-6.477-9.262-6.477zM733.138 486.246h-8.604c-5.089 0-9.226 2.893-9.226 6.477s4.137 6.477 9.226 6.477h8.604c5.125 0 9.262-2.893 9.262-6.477s-4.137-6.477-9.262-6.477zM309.207 828.451c30.86 0 59.911-12.057 81.84-33.965 22.269-22.060 34.477-51.536 34.741-83.029v0l0.075-19.055c5.124-2.662 9.872-6.2 13.791-10.574 9.533-10.421 14.431-24.608 13.263-38.795v0l-2.826-33.66c-1.319-15.936-10.060-29.477-22.532-37.35-0.678-25.977-9.684-51.232-25.811-71.619v0l-10.475-13.274c2.11-6.58 4.936-12.551 9.118-17.344 0.364-0.406 0.661-0.841 0.925-1.289l1.449-2.705c46.987-15.784 88.773-41.457 122.647-74.509-0.264 3.537-0.678 6.884-0.904 10.535-6.632 103.948 8.779 182.45 45.931 233.302 31.387 42.941 77.017 64.772 135.421 64.772 58.328 0 103.28-21.718 133.687-64.506 36.135-50.89 49.699-129.545 40.053-233.873-3.956-43.093-10.927-80.595-16.767-107.105 79.579-42.104 137.305-114.141 155.353-199.262 2.901-13.921-5.765-27.537-19.593-30.542-1.733-0.342-3.58-0.532-5.351-0.532-11.794 0-22.269 8.291-24.793 20.272-16.278 76.867-72.006 141.335-148.496 174.463-20.083-35.562-57.688-82.991-115.677-82.991-59.458 0-97.327 47.543-117.108 82.040-75.284-33.394-129.882-97.444-145.971-173.588-2.562-12.019-13.075-20.272-24.831-20.272-1.809 0-3.58 0.19-5.351 0.571-13.753 2.929-22.495 16.583-19.593 30.427 17.333 82.116 71.403 152.061 146.461 194.736-23.474 46.364-62.058 84.664-109.836 109.805v0-69.527c18.425-5.591 31.99-22.706 31.99-43.207 0-24.912-20.083-45.185-44.763-45.185-24.718 0-44.839 20.272-44.839 45.185 0 20.5 13.64 37.616 32.103 43.207v0 81.279c-6.895 2.815-13.941 5.591-21.176 7.797-0.49 0.19-0.829 0.532-1.319 0.723v0l-68.426-121.786c-2.298-3.994-6.519-6.466-11.153-6.466-4.522 0-8.704 2.472-11.002 6.466v0l-69.783 123.878c-1.696-1.027-3.127-2.282-5.011-2.853-5.727-1.826-11.040-4.298-16.504-6.428v0-51.917c25.886-5.857 45.253-29.134 45.253-57.051v0-50.167c0-7.15-5.652-12.894-12.698-12.894-6.971 0-12.736 5.743-12.736 12.894v0 50.167c0 18.142-14.582 32.938-32.555 32.938-17.936 0-32.555-14.795-32.555-32.938v0-50.167c0-7.15-5.69-12.894-12.698-12.894s-12.811 5.743-12.811 12.894v0 50.167c0 27.917 19.48 51.194 45.404 57.051v0 40.316c-62.85-33.090-108.48-89.495-122.421-155.484-2.562-12.019-13.113-20.272-24.831-20.272-1.809 0-3.542 0.114-5.313 0.532-13.828 2.967-22.57 16.583-19.631 30.427 20.46 96.607 94.802 176.517 194.389 210.063 0.716 1.179 1.093 2.472 2.035 3.499 3.994 4.412 6.669 9.965 8.742 15.86-0.038 0.114-0.188 0.152-0.264 0.228v0l-10.513 13.16c-15.976 20.272-25.057 45.451-25.848 71.276-13.452 7.531-22.645 20.995-24.341 37.045v0l-3.58 32.938c-1.545 14.263 3.052 28.678 12.51 39.442 4.032 4.64 8.892 8.406 14.205 11.182v0l-0.113 18.941c-0.151 31.492 11.718 61.083 33.648 83.485 21.854 22.326 51.094 34.763 82.292 34.992v0l24.793 0.114zM750.963 332.94c-6.481-3.956-13.339-7.607-20.912-10.65-8.629-3.385-17.672-5.135-26.979-5.135-9.533 0-18.764 1.826-27.582 5.439-5.087 2.092-10.965 5.097-17.031 8.482-2.072-15.86-7.988-35.98-23.814-53.59-4.182-4.716-9.872-7.036-15.712-7.835-2.487-0.761-4.898-1.864-7.272-2.662 17.37-28.906 48.192-65.495 92.617-65.495 43.595 0 73.89 36.589 91.373 66.294-2.298 0.799-4.333 1.788-6.632 2.472-5.2 0.989-10.249 3.119-14.13 7.493-16.24 18.142-22.080 38.909-23.927 55.188zM415.275 306.431c-10.701 0-19.405-8.786-19.405-19.626 0-10.688 8.704-19.512 19.405-19.512s19.405 8.824 19.405 19.512c0 10.84-8.704 19.626-19.405 19.626zM340.255 479.867c-13.226-6.428-27.77-9.889-42.955-9.889-14.205 0-27.808 3.309-40.393 8.938-3.429-14.339-9.646-27.499-18.35-38.643v0l61.908-109.919 60.438 107.333c-9.947 11.867-16.956 26.282-20.648 42.18zM640.26 575.219l-39.714-37.464 0.264-25.939c-7.121 7.455-14.243 11.030-19.104 8.482-8.139-4.184-6.632-23.353 3.278-42.789 4.861-9.433 10.776-17.153 16.466-22.212v0-7.379c14.733-64.24 58.667-91.168 83.687-101.514 11.304-4.678 24.153-4.792 35.57-0.19 64.809 25.711 81.011 102.008 81.162 102.807 1.545 10.992 2.072 31.188 1.62 57.394-10.324-1.826-24.906-3.689-41.146-3.689-60.664 0-103.318 25.597-122.082 72.493v0zM355.59 757.745c-2.11-0.076-3.542-0.494-3.542-0.494-5.351-2.282-10.626-4.83-13.828-6.39-4.522-2.168-8.44-3.994-11.492-5.287-8.252-3.385-16.805-6.922-27.205-6.922v0c-11.342 0-19.706 3.309-26.376 5.933-8.968 3.499-13.565 2.738-19.254 0.418-0.603-0.304-3.127-1.103-3.768-1.293-0.98-0.228-20.422-5.895-31.086-29.058-0.075-1.483-0.377-2.967-0.377-4.488v0l0.226-36.665c0.151-15.252-12.095-27.879-27.355-28.031v0l3.504-30.389c13.188-1.027 24.718-11.981 24.793-25.369v0l0.075-16.431c0.151-15.29 5.426-30.237 14.883-42.142v0l9.495-12.057c13.828-14.719 32.631-23.467 53.015-23.467 22.306 0 43.219 10.117 57.273 27.651 0.151 0.266 0.414 0.38 0.716 0.609v0l6.707 8.558c9.608 12.133 14.846 27.385 14.733 42.941v0l-0.151 14.757c-0.038 6.846 2.6 13.388 7.31 18.218 4.182 4.336 9.759 6.96 15.637 7.569v0l2.675 31.416c-14.808-0.647-26.903 11.677-27.016 26.776v0l-0.226 37.045c-0.151 17.61-7.008 34.155-19.367 46.592zM271.642 646.49h-5.734c-3.533 0-6.451-2.918-6.451-6.477 0-3.584 2.918-6.502 6.451-6.502h5.734c3.584 0 6.502 2.918 6.502 6.502 0 3.558-2.918 6.477-6.502 6.477zM322.842 646.49h-5.683c-3.558 0-6.477-2.918-6.477-6.477 0-3.584 2.918-6.502 6.477-6.502h5.683c3.635 0 6.477 2.918 6.477 6.502 0 3.558-2.842 6.477-6.477 6.477z" />
<glyph unicode="&#xe919;" glyph-name="patient" horiz-adv-x="998" d="M511.309 942.5c97.499 0 176.837-79.382 176.837-176.837v0-43.279c10.415-3.588 19.911-9.671 27.525-17.986 12.472-13.653 18.73-32.12 17.067-50.587v0l-5.076-55.62c-2.101-23.893-17.154-43.542-37.984-52.294v0-4.595c0.088-41.135-14.003-81.351-39.822-113.253v0l-17.636-21.837v-0.963c-0.219-1.094-5.514-39.385 16.717-70.761 1.925-0.788 3.807-1.707 5.558-2.888 168.96-52.994 294.772-184.539 329.124-345.403 2.844-13.347-5.645-26.388-18.948-29.232-1.75-0.35-3.457-0.525-5.164-0.525-11.378 0-21.53 7.964-24.025 19.517-29.32 137.058-133.82 250.661-275.78 302.036-20.611-73.781-87.653-126.25-167.035-126.25-79.557 0-146.642 52.644-167.166 126.6-142.485-51.2-247.467-165.065-276.786-302.474-2.451-11.64-12.691-19.517-24.068-19.517-1.707 0-3.413 0.175-5.12 0.525-13.347 2.844-21.793 15.885-18.992 29.232 34.44 161.389 161.039 293.503 331.050 346.059 1.094 0.7 2.276 1.225 3.545 1.707 20.568 28.926 17.811 63.365 16.979 69.492-0.656 0.875-1.488 1.619-2.144 2.494v0l-17.373 21.924c-24.944 31.639-38.728 71.199-38.728 111.415v0 6.914c-22.23 8.358-37.853 28.051-40.304 52.031v0l-5.601 54.438c-1.925 18.686 4.201 37.459 16.76 51.375 7.789 8.665 17.636 14.966 28.444 18.555v0 43.148c0 97.455 79.251 176.837 176.793 176.837v0zM584.695 363.984c-27.832-17.11-60.083-26.431-93.735-26.431-32.908 0-64.284 8.971-91.635 25.25-3.501-19.605-11.465-42.142-27.919-62.84 11.772-57.195 61.352-98.987 121.261-98.987 59.646 0 108.789 41.616 120.779 98.549-17.198 21.224-25.294 44.461-28.751 64.459zM382.696 819.095c0-38.991 5.951-144.060-60.871-144.060-2.407 0-4.42 0.788-6.083 1.969-0.525 0-1.006-0.306-1.619-0.306-6.652 0-10.94-3.588-12.822-5.733-1.969-2.101-5.032-6.695-4.376-13.303v0l5.645-54.438c0.7-7.045 6.52-12.341 13.522-12.341 13.653 0 27-10.984 27-24.55v0-27.132c0-29.232 10.021-57.939 28.138-80.87v0l17.329-21.968c24.9-31.551 62.228-49.581 102.4-49.581 39.56 0 76.581 17.723 101.525 48.531v0l19.080 23.675c18.73 23.193 28.97 52.382 28.882 82.183v0 24.287c-0.088 6.608 2.582 12.822 7.177 17.504 4.595 4.595 10.853 7.221 17.417 7.221 7.133 0 12.997 5.383 13.61 12.472v0l5.032 55.532c0.613 6.52-2.538 10.94-4.332 12.997-1.882 2.057-6.083 5.514-12.559 5.514-0.7 0-1.313 0.35-1.969 0.394-1.882-1.313-4.114-2.057-6.783-2.057-40.216 0-38.772 52.95-43.673 88.703-4.157 30.808-32.689 52.206-63.409 47.655-102.488-14.922-168.26 7.702-168.26 7.702zM566.609 649.19h-14.354c-8.446 0-15.404-6.87-15.404-15.404 0-8.49 6.958-15.36 15.404-15.36h14.354c8.49 0 15.404 6.87 15.404 15.36 0 8.533-6.914 15.404-15.404 15.404zM428.146 649.19h-14.354c-8.49 0-15.404-6.87-15.404-15.404 0-8.49 6.914-15.36 15.404-15.36h14.354c8.446 0 15.404 6.87 15.404 15.36 0 8.533-6.958 15.404-15.404 15.404z" />
<glyph unicode="&#xe91a;" glyph-name="person" horiz-adv-x="794" d="M386.563-63.66c-92.382 0-184.764-0.256-277.146 0.094-71.543 0.265-110.583 40.329-109.389 111.215 3.456 205.534 174.857 373.683 381.696 374.448 209.886 0.771 384.196-166.175 388.659-372.229 1.604-74.342-36.19-113.254-110.942-113.468-90.957-0.247-181.914-0.060-272.879-0.060zM384.743 491.032c-129.826 0.154-237.551 107.162-236.595 235.025 0.973 129.143 107.614 234.078 237.773 233.942 129.707-0.137 236.518-106.411 236.467-235.281-0.051-128.708-106.957-233.83-237.645-233.686z" />
<glyph unicode="&#xe91b;" glyph-name="print" d="M487.085 710.323c141.286 0.013 282.572 0.046 423.858-0.013 78.078-0.033 106.555-28.157 106.587-105.087 0.034-94.554 0.059-189.107-0.013-283.668-0.046-69.789-30.57-100.437-101.148-101.598-16.234-0.267-32.481-0.039-53.502-0.039 0 36.779 0.248 71.178-0.046 105.563-0.704 80.576-49.648 129.82-130.087 129.996-148.897 0.326-297.788 0.28-446.686 0.020-81.059-0.15-130.289-48.806-131.092-128.939-0.339-33.551-0.059-67.114-0.059-105.524-30.048 0-56.079-1.702-81.796 0.398-39.506 3.222-72 38.286-72.345 79.363-0.939 109.764-1.089 219.54 0.033 329.298 0.483 47.378 37.36 79.846 88.521 80.035 132.585 0.483 265.183 0.189 397.775 0.196zM764.321 586.908c-9.092-0.691-17.141-15.047-25.672-23.115 9.457-8.231 17.799-20.969 28.62-23.637 16.364-4.037 34.457-1.057 51.82-1.057v0.124c17.362 0 35.351-2.759 51.833 1.057 9.529 2.205 23.050 15.001 23.030 22.998-0.033 8.264-13.808 22.926-22.417 23.572-35.592 2.7-71.628 2.752-107.213 0.059zM733.886 403.199c51.63-0.215 78.939-26.311 79.402-77.641 0.757-83.648 0.744-167.316-0.007-250.971-0.457-49.954-26.598-77.426-76.48-77.72-152.1-0.92-304.213-0.939-456.313 0.013-49.935 0.32-75.783 27.928-76.167 78.020-0.639 83.661-0.704 167.323 0.026 250.978 0.45 50.998 27.974 77.12 79.742 77.322 76.050 0.3 152.106 0.078 228.156 0.078 73.885 0 147.763 0.228 221.641-0.078zM341.159 176.497c-18.36 0.104-37.458-0.222-37.921-24.172-0.463-23.872 18.236-25.502 36.851-25.476 112.686 0.163 225.371 0.17 338.050-0.007 18.817-0.026 36.864 2.159 36.251 26.070-0.561 21.765-17.467 23.728-35.181 23.604-56.34-0.385-112.686-0.143-169.025-0.137-56.34 0-112.686-0.202-169.025 0.117zM336.789 273.771c-18.66 0.176-33.766-4.272-33.612-25.378 0.159-21.308 16.458-25.457 34.342-25.45 113.912 0.033 227.824 0.020 341.729-0.007 17.571 0 34.503 3.098 35.11 24.615 0.672 23.748-16.58 26.37-35.847 26.2-56.411-0.502-112.823-0.183-169.234-0.189-57.501 0-115.001-0.352-172.489 0.209zM763.541 763.399h-508.667c0 37.425-3.698 74.419 1.8 109.985 2.237 14.466 22.756 28.907 38.201 37.581 11.049 6.209 27.505 3.542 41.547 3.568 118.249 0.202 236.498 0.333 354.754 0.013 58.759-0.163 72.326-14.395 72.365-73.487 0.013-24.798 0-49.596 0-77.661z" />
<glyph unicode="&#xe91c;" glyph-name="search-list" horiz-adv-x="973" d="M683.426 600.691c117.373-86.739 140.035-223.58 61.095-374.576 44.749-44.746 89.653-89.637 134.602-134.582l67.443-67.448c35.156-35.164 35.085-35.269-0.861-71.646-5.009-5.073-9.212-10.94-13.786-16.438h-22.066c-76.585 75.231-153.164 150.467-231.442 227.368-65.348-44.599-139.947-59.030-219.886-39.41-63.98 15.699-115.051 51.608-153.418 105.184-76.27 106.507-62.319 256.059 32.249 347.49 94.756 91.602 240.931 101.765 346.069 24.059zM523.571 563.503c-98.474-0.733-177.624-80.91-177.519-179.836 0.105-99.256 78.996-178.104 178.292-178.192 98.772-0.088 178.97 79.157 179.759 177.63 0.789 98.628-81.776 181.131-180.531 180.398zM204.8 422.4c-1.082-17.811-2.008-33.041-3.118-51.2h-201.682v51.2h204.8zM0 601.6h281.6c-15.909-17.059-30.233-32.821-45.33-48.145-2.101-2.128-7.995-2.918-12.137-2.926-73.962-0.172-147.924-0.123-224.132-0.123v51.194zM0 729.6h640v51.2h-640zM0 908.8h640v51.2h-640z" />
<glyph unicode="&#xe91d;" glyph-name="search" d="M405.573 946.434c193.178-12.959 344.822-147.517 371.507-330.911 15.283-105.021-8.34-201.308-74.921-296.059 5.468-2.729 13.548-4.833 19.072-9.784 91.443-81.997 182.723-164.183 273.567-246.845 11.131-10.132 19.533-23.265 29.204-35.005v-30.72c-35.768-48.333-61.123-50.483-105.887-9.17-20.685 19.082-41.544 37.98-62.356 56.934-74.332 67.702-148.68 135.393-223.299 203.351-8.074-5.571-15.022-10.465-22.072-15.212-217.298-146.196-510.966-45.655-591.79 202.819-7.27 22.364-12.447 45.42-18.596 68.157v102.4c5.217 20.408 9.861 40.986 15.744 61.204 49.582 170.322 217.59 290.391 389.827 278.84zM391.938 840.496c-155.228 2.068-283.914-124.815-285.169-281.165-1.29-160.338 122.327-285.542 283.443-287.089 153.626-1.469 283.064 125.143 285.184 278.958 2.176 157.937-124.462 287.181-283.459 289.295z" />
<glyph unicode="&#xe91e;" glyph-name="submit-claim" horiz-adv-x="947" d="M799.182 960c52.204-21.891 69.087-62.358 68.096-116.759-1.994-109.863-0.536-219.79-0.697-329.688-0.012-9.471-0.173-19.252-2.472-28.339-4.898-19.379-19.211-29.303-38.404-27.020-18.767 2.232-31.772 13.86-31.973 34.42-0.415 42.044-0.19 84.1-0.202 126.15-0.012 78.363-0.697 156.732 0.403 235.084 0.346 24.651-7.836 33.749-33.143 33.6-143.013-0.838-286.050 0.316-429.052-1.377-16.912-0.195-37.424-9.684-49.87-21.53-63.117-60.080-124.875-121.647-185.237-184.475-12.037-12.535-22.432-32.785-22.564-49.565-1.556-193.986-1.003-387.99-0.933-581.988 0-5.513 0.789-11.032 1.441-19.488h61.026c79.671 0 159.343 0.017 239.009-0.034 8.632-0.006 17.424 0.562 25.848-0.855 20.628-3.459 33.915-16.327 32.872-37.002-1.077-21.513-14.249-34.908-37.603-34.914-119.026-0.030-238.046-0.063-357.073 0.034-24.944 0.023-38.11 15.088-38.162 37.702-0.491 217.88-1.343 435.777 1.746 653.616 0.375 26.291 18.145 57.195 37.033 77.486 63.255 67.934 130.095 132.621 196.917 197.153 15.932 15.38 37.154 25.339 55.938 37.788h507.058zM225.771 558.6c-26.953 0.006-53.917-0.463-80.858 0.138-26.587 0.595-44.551 16.654-44.521 38.46 0.036 21.848 17.929 37.931 44.665 38.225 48.913 0.541 97.868 1.377 146.728-0.301 26.959-0.92 35.083 10.287 34.555 35.381-1.014 47.995-0.156 96.020-0.294 144.033-0.072 25.191 8.502 43.468 36.547 44.995 24.535 1.329 38.191-14.802 38.479-45.939 0.474-52.011 0.876-104.046-0.114-156.039-1.158-60.681-39.727-98.1-100.316-98.906-24.955-0.331-49.915-0.054-74.87-0.048zM797.336 69.444c-37.578 0-75.151-0.282-112.729 0.084-33.733 0.324-49.565 13.29-48.761 38.856 0.762 24.078 16.078 35.838 48.431 36.138 37.632 0.342 75.271 0.078 121.926 0.078-17.949 18.096-30.409 30.18-42.33 42.774-19.011 20.1-20.805 42.234-5.213 58.38 15.844 16.41 38.082 15.39 57.915-3.906 35.815-34.842 71.401-69.942 106.478-105.528 18.363-18.642 18.705-39.306 0.312-58.038-35.713-36.372-72.139-72.042-108.494-107.772-17.643-17.34-37.638-20.25-55.486-2.142-17.667 17.94-15.118 38.34 2.226 55.692 13.030 13.026 27.656 24.462 41.574 36.606-1.956 2.922-3.899 5.85-5.849 8.778z" />
<glyph unicode="&#xe91f;" glyph-name="trash" horiz-adv-x="691" d="M59.254 618.447c94.245 0.4 188.495 0.132 282.741 0.137 91.786 0.005 183.577 0.083 275.364-0.025 48.842-0.061 69.143-24.219 64.717-74.894-15.458-176.993-30.728-354.001-45.748-531.034-4.5-53.053-28.712-76.594-80.814-76.604-143.416-0.025-286.838-0.046-430.254 0.010-47.705 0.020-73.088 23.415-77.366 72.071-16.013 182.012-31.85 364.044-47.597 546.081-3.256 37.647 20.641 64.097 58.958 64.259zM582.194 491.345h-117.454v-429.856h87.326c10.176 145.174 20.135 287.272 30.128 429.856v0zM218.939 491.314h-117.493c10.146-143.93 20.184-286.266 30.261-429.254v0h87.232v429.254zM400.554 490.743h-116.411v-428.566h116.411v428.566zM343.16 960l107.802-0.145c31.099-0.089 48.079-17.472 53.962-54.971 3.148-20.066 6.974-40.21 7.856-60.488 0.785-18.003 7.828-21.552 20.611-21.021 17.75 0.732 35.543 0.347 53.316 0.123 68.601-0.844 104.255-51.511 94.319-136.564v0h-679.214c-10.582 81.409 25.853 135.072 91.617 136.491 24.599 0.531 49.216 0.089 75.57 0.089 3.617 27.298 7.136 52.674 10.312 78.122 5.033 40.344 21.827 58.168 56.046 58.241 71.87 0.151 143.735 0.184 215.605-0.022zM448.26 890.435h-212.54c-2.572-21.513-4.982-41.657-7.796-65.166v0h227.445c-2.484 22.793-4.745 43.485-7.109 65.166v0z" />
</font>
</defs>
</svg>
