<?xml version="1.0" encoding="UTF-8"?>
<svg width="60px" height="60px" viewBox="0 0 60 60" version="1.1" xmlns="http://www.w3.org/2000/svg" xmlns:xlink="http://www.w3.org/1999/xlink">
    <!-- Generator: Sketch 61 (89581) - https://sketch.com -->
    <title>arrow-circle-down</title>
    <desc>Created with Sketch.</desc>
    <g id="arrow-circle-down" stroke="none" stroke-width="1" fill="none" fill-rule="evenodd">
        <g transform="translate(11.000000, 11.000000)" fill="#000000" fill-rule="nonzero">
            <path d="M19.4285714,38.8571429 C8.68571429,38.8571429 0,30.1714286 0,19.4285714 C0,8.68571429 8.68571429,0 19.4285714,0 C30.1714286,0 38.8571429,8.68571429 38.8571429,19.4285714 C38.8571429,30.1714286 30.1714286,38.8571429 19.4285714,38.8571429 Z M19.4285714,1.14285714 C9.37142857,1.14285714 1.14285714,9.37142857 1.14285714,19.4285714 C1.14285714,29.4857143 9.37142857,37.7142857 19.4285714,37.7142857 C29.4857143,37.7142857 37.7142857,29.4857143 37.7142857,19.4285714 C37.7142857,9.37142857 29.4857143,1.14285714 19.4285714,1.14285714 Z" id="Shape"></path>
            <polygon id="Path" points="28.9714286 14.8 28.0571429 14 19.4857143 23.0285714 10.8 14.6857143 10 15.4857143 19.4857143 24.6285714 20.2857143 23.8285714 20.2857143 23.8285714"></polygon>
        </g>
    </g>
</svg>