<?xml version="1.0" encoding="UTF-8"?>
<svg width="60px" height="60px" viewBox="0 0 60 60" version="1.1" xmlns="http://www.w3.org/2000/svg" xmlns:xlink="http://www.w3.org/1999/xlink">
    <!-- Generator: Sketch 61 (89581) - https://sketch.com -->
    <title>claims</title>
    <desc>Created with Sketch.</desc>
    <g id="claims" stroke="none" stroke-width="1" fill="none" fill-rule="evenodd">
        <g transform="translate(10.000000, 11.000000)" fill="#000000" fill-rule="nonzero">
            <path d="M39.1794872,5.74358974 C39.0769231,5.33333333 38.6666667,5.02564103 38.1538462,5.02564103 L33.8461538,5.02564103 C33.6410256,3.69230769 33.1282051,2.25641026 32.4102564,0.820512821 C32.2051282,0.512820513 31.7948718,0.205128205 31.3846154,0.205128205 L4.20512821,0.205128205 C3.8974359,0.205128205 3.48717949,0.41025641 3.28205128,0.615384615 C3.17948718,0.923076923 3.07692308,1.33333333 3.28205128,1.64102564 C6.05128205,7.07692308 4.30769231,11.5897436 2.46153846,16.4102564 C0.512820513,21.3333333 -1.43589744,26.5641026 1.74358974,32.6153846 C1.94871795,32.9230769 2.35897436,33.2307692 2.76923077,33.2307692 L6.97435897,33.2307692 C7.17948718,34.6666667 7.69230769,36 8.41025641,37.4358974 C8.61538462,37.7435897 9.02564103,38.0512821 9.43589744,38.0512821 L35.3846154,38.0512821 C36,38.0512821 36.6153846,37.7435897 36.9230769,37.3333333 C37.2307692,36.9230769 37.3333333,36.3076923 37.1282051,35.7948718 C33.9487179,27.7948718 35.6923077,23.6923077 37.5384615,19.3846154 C39.0769231,15.5897436 40.6153846,11.7948718 39.1794872,5.74358974 Z M3.28205128,31.2820513 C0.820512821,26.0512821 2.56410256,21.6410256 4.41025641,17.025641 C6.15384615,12.4102564 8,7.69230769 5.74358974,2.15384615 L30.7692308,2.15384615 C33.2307692,7.38461538 31.4871795,11.7948718 29.7435897,16.4102564 C28,21.025641 26.1538462,25.7435897 28.4102564,31.2820513 L3.28205128,31.2820513 Z M35.0769231,36.1025641 L9.94871795,36.1025641 C9.53846154,35.1794872 9.23076923,34.1538462 9.02564103,33.2307692 L29.8461538,33.2307692 C30.1538462,33.2307692 30.5641026,33.025641 30.7692308,32.8205128 C30.974359,32.5128205 30.974359,32.2051282 30.8717949,31.8974359 C28.1025641,26.4615385 29.8461538,21.9487179 31.6923077,17.1282051 C32.9230769,13.8461538 34.2564103,10.5641026 34.0512821,6.97435897 L37.2307692,6.97435897 C38.2564103,12.1025641 36.9230769,15.2820513 35.4871795,18.6666667 C33.7435897,22.974359 31.7948718,27.4871795 35.0769231,36.1025641 Z" id="Shape"></path>
            <path d="M24.6153846,24.6153846 L17.4358974,24.6153846 C16.8205128,24.6153846 16.4102564,25.025641 16.4102564,25.6410256 C16.4102564,26.2564103 16.8205128,26.6666667 17.4358974,26.6666667 L24.6153846,26.6666667 C25.2307692,26.6666667 25.6410256,26.2564103 25.6410256,25.6410256 C25.6410256,25.025641 25.2307692,24.6153846 24.6153846,24.6153846 Z" id="Path"></path>
            <path d="M24.6153846,19.4871795 L17.4358974,19.4871795 C16.8205128,19.4871795 16.4102564,19.8974359 16.4102564,20.5128205 C16.4102564,21.1282051 16.8205128,21.5384615 17.4358974,21.5384615 L24.6153846,21.5384615 C25.2307692,21.5384615 25.6410256,21.1282051 25.6410256,20.5128205 C25.6410256,19.8974359 25.2307692,19.4871795 24.6153846,19.4871795 Z" id="Path"></path>
            <path d="M12.4102564,21.9487179 C11.8974359,21.5384615 11.3846154,21.3333333 10.1538462,21.025641 L10.1538462,18.8717949 C10.6666667,18.8717949 11.1794872,19.3846154 11.1794872,20.1025641 L13.025641,20.1025641 C12.9230769,18.5641026 11.8974359,17.6410256 10.1538462,17.4358974 L10.1538462,16.4102564 L9.43589744,16.4102564 L9.43589744,17.3333333 C8.41025641,17.4358974 8,17.6410256 7.38461538,18.0512821 C6.76923077,18.5641026 6.46153846,19.1794872 6.46153846,20.1025641 C6.46153846,21.4358974 7.17948718,22.1538462 8.92307692,22.5641026 C9.02564103,22.5641026 9.12820513,22.5641026 9.12820513,22.6666667 C9.23076923,22.6666667 9.33333333,22.7692308 9.33333333,22.7692308 C9.33333333,22.7692308 9.33333333,22.7692308 9.43589744,22.7692308 L9.43589744,25.3333333 C8.61538462,25.1282051 8.1025641,24.6153846 8.1025641,23.6923077 L8.1025641,23.6923077 L6.15384615,23.6923077 C6.35897436,25.6410256 7.38461538,26.6666667 9.33333333,26.7692308 L9.33333333,27.7948718 L10.0512821,27.7948718 L10.0512821,26.7692308 C11.2820513,26.6666667 11.8974359,26.3589744 12.5128205,25.7435897 C13.025641,25.2307692 13.2307692,24.7179487 13.2307692,24 C13.3333333,23.0769231 13.025641,22.3589744 12.4102564,21.9487179 Z M9.33333333,20.8205128 C8.41025641,20.6153846 8.20512821,20.4102564 8.20512821,19.7948718 C8.20512821,19.1794872 8.61538462,18.7692308 9.33333333,18.7692308 L9.33333333,20.8205128 Z M10.1538462,25.2307692 L10.1538462,22.8717949 C11.1794872,23.1794872 11.5897436,23.3846154 11.5897436,24 C11.4871795,24.6153846 11.0769231,25.025641 10.1538462,25.2307692 Z" id="Shape"></path>
            <path d="M12.4102564,14.3589744 L27.6923077,14.3589744 C28.3076923,14.3589744 28.8205128,13.9487179 28.8205128,13.4358974 L28.8205128,7.07692308 C28.7179487,6.56410256 28.2051282,6.15384615 27.5897436,6.15384615 L12.4102564,6.15384615 C11.7948718,6.15384615 11.2820513,6.56410256 11.2820513,7.07692308 L11.2820513,13.4358974 C11.2820513,13.9487179 11.7948718,14.3589744 12.4102564,14.3589744 Z M13.4358974,8 L26.5641026,8 L26.5641026,12.6153846 L13.4358974,12.6153846 L13.4358974,8 Z" id="Shape"></path>
        </g>
    </g>
</svg>