<?xml version="1.0" encoding="UTF-8"?>
<svg width="60px" height="60px" viewBox="0 0 60 60" version="1.1" xmlns="http://www.w3.org/2000/svg" xmlns:xlink="http://www.w3.org/1999/xlink">
    <!-- Generator: Sketch 61 (89581) - https://sketch.com -->
    <title>close</title>
    <desc>Created with Sketch.</desc>
    <g id="close" stroke="none" stroke-width="1" fill="none" fill-rule="evenodd">
        <g transform="translate(10.000000, 10.000000)" fill="#000000" fill-rule="nonzero">
            <path d="M20,39.4285714 C9.25714286,39.4285714 0.571428571,30.7428571 0.571428571,20 C0.571428571,9.25714286 9.25714286,0.571428571 20,0.571428571 C30.7428571,0.571428571 39.4285714,9.25714286 39.4285714,20 C39.4285714,30.7428571 30.7428571,39.4285714 20,39.4285714 Z M20,1.71428571 C9.94285714,1.71428571 1.71428571,9.94285714 1.71428571,20 C1.71428571,30.0571429 9.94285714,38.2857143 20,38.2857143 C30.0571429,38.2857143 38.2857143,30.0571429 38.2857143,20 C38.2857143,9.94285714 30.0571429,1.71428571 20,1.71428571 Z" id="Shape"></path>
            <polygon id="Path" points="21.6 20.8 21.3714286 20.5714286 27.8857143 14.1714286 26.9714286 13.2571429 20.6857143 19.6571429 14.5142857 12.5714286 13.7142857 13.3714286 19.6571429 20.3428571 19.5428571 20.3428571 19.7714286 20.5714286 13.2571429 26.9714286 14.1714286 27.8857143 20.4571429 21.4857143 26.6285714 28.5714286 27.4285714 27.7714286 21.4857143 20.8"></polygon>
        </g>
    </g>
</svg>