<?xml version="1.0" encoding="UTF-8"?>
<svg width="60px" height="60px" viewBox="0 0 60 60" version="1.1" xmlns="http://www.w3.org/2000/svg" xmlns:xlink="http://www.w3.org/1999/xlink">
    <!-- Generator: Sketch 61 (89581) - https://sketch.com -->
    <title>coverage</title>
    <desc>Created with Sketch.</desc>
    <g id="coverage" stroke="none" stroke-width="1" fill="none" fill-rule="evenodd">
        <path d="M29.9991164,10 C35.5480451,10 40.6498785,12.1798848 44.366247,16.1338059 C47.9995582,20.0008861 50,25.1989366 50,30.7727071 C50,31.1466549 49.9840954,31.2689411 49.959355,31.4550288 C49.9434504,31.5560479 49.9257787,31.6836509 49.9045726,31.986708 C49.8656947,32.5077537 49.4327369,32.9100576 48.9131875,32.9118299 L48.9131875,32.9118299 C48.3830351,32.9082853 47.9518445,32.4971201 47.9218025,31.9743022 C47.8634858,31.0420913 47.3138944,27.9991139 42.6485531,27.9991139 C40.0914513,27.9991139 37.3593992,29.1315906 37.3593992,32.3057156 C37.3593992,32.8568897 36.9140711,33.3035002 36.366247,33.3035002 C35.8166556,33.3035002 35.3713276,32.8568897 35.3713276,32.3057156 C35.3713276,29.6207355 33.4168323,28.4014178 31.2644135,28.0877271 L31.2644135,28.0877271 L31.2644135,46.443066 C31.2644135,48.4049623 29.6721891,50 27.7159267,50 C25.7596642,50 24.1674398,48.4049623 24.1674398,46.443066 L24.1674398,46.443066 L24.1674398,45.0784227 C24.1674398,44.5272486 24.6110007,44.0824103 25.160592,44.0824103 C25.7101833,44.0824103 26.1555114,44.5272486 26.1555114,45.0784227 L26.1555114,45.0784227 L26.1555114,46.443066 C26.1555114,47.3043864 26.8553126,48.0062029 27.7159267,48.0062029 C28.5765408,48.0062029 29.2763419,47.3043864 29.2763419,46.443066 L29.2763419,46.443066 L29.2763419,28.0434205 C27.7017893,28.1976074 25.0280539,28.9047408 24.8124586,31.9246788 C24.7753479,32.4474967 24.3441573,32.8533451 23.8210736,32.8533451 C23.299757,32.8533451 22.8667992,32.4474967 22.8296885,31.9246788 C22.571681,28.2844484 18.7316103,27.9991139 17.5599735,27.9991139 C15.047051,27.9991139 12.1100066,29.1280461 12.1100066,32.3057156 C12.1100066,32.8409393 11.689419,33.2786885 11.1574994,33.3035002 L11.1574994,33.3035002 L11.1150873,33.3035002 C10.6008394,33.3035002 10.1696488,32.9100576 10.1237022,32.3925565 C10.0989618,32.0877271 10.0759885,31.8963226 10.0565496,31.7421356 C10.0229733,31.4585733 10,31.254763 10,30.7727071 C10,25.1581746 12.0075105,19.9406291 15.653192,16.0859548 C19.3624917,12.1621622 24.4572565,10 29.9991164,10 Z M29.9991164,11.9937971 C25.008615,11.9937971 20.4263309,13.9344262 17.0952065,17.4576872 C14.4656505,20.2383695 12.7797658,23.8130261 12.2072012,27.7385911 C12.2814226,27.6747895 12.3591783,27.6145326 12.4387011,27.5525033 C13.7570135,26.5564909 15.5772034,26.0053168 17.5599735,26.0053168 C19.4791252,26.0053168 21.1632428,26.4856004 22.4267727,27.3929996 C22.9869671,27.7935312 23.451734,28.2702703 23.8210736,28.8108108 C24.1904131,28.2702703 24.6569472,27.7935312 25.2171416,27.3929996 C26.4806715,26.4856004 28.1630219,26.0053168 30.0821736,26.0053168 C32.9237906,26.0053168 35.1574994,27.0863979 36.366247,28.8834736 C37.5732273,27.0863979 39.8069362,26.0053168 42.6485531,26.0053168 C44.7461895,26.0053168 46.5062956,26.5813026 47.7698255,27.6003545 C47.1760548,23.7616305 45.5060747,20.2525476 42.920698,17.5002215 C39.582505,13.9503766 34.9949194,11.9937971 29.9991164,11.9937971 Z" id="umbrella" fill="#000000" fill-rule="nonzero"></path>
    </g>
</svg>