<?xml version="1.0" encoding="UTF-8"?>
<svg width="60px" height="60px" viewBox="0 0 60 60" version="1.1" xmlns="http://www.w3.org/2000/svg" xmlns:xlink="http://www.w3.org/1999/xlink">
    <!-- Generator: Sketch 61 (89581) - https://sketch.com -->
    <title>doctor</title>
    <desc>Created with Sketch.</desc>
    <g id="doctor" stroke="none" stroke-width="1" fill="none" fill-rule="evenodd">
        <g transform="translate(10.000000, 10.000000)" fill="#000000" fill-rule="nonzero">
            <path d="M39.4871795,37.9487179 C38.5641026,33.7435897 36,29.9487179 32.4102564,27.3846154 L32.4102564,9.02564103 C32.4102564,8 32.2051282,7.07692308 31.8974359,6.15384615 C31.5897436,5.02564103 30.974359,4.1025641 30.2564103,3.38461538 C29.025641,2.15384615 26.8717949,0.820512821 23.3846154,1.84615385 C19.1794872,0.102564103 13.4358974,2.33146835e-15 10.0512821,5.02564103 C8.71794872,6.87179487 8.1025641,9.23076923 8.1025641,11.6923077 L8.1025641,27.2820513 C8.1025641,27.3846154 8.1025641,27.3846154 8.1025641,27.3846154 C4.51282051,29.9487179 1.94871795,33.7435897 1.02564103,38.0512821 C0.923076923,38.5641026 1.23076923,39.0769231 1.74358974,39.1794872 C1.84615385,39.1794872 1.84615385,39.1794872 1.94871795,39.1794872 C2.35897436,39.1794872 2.76923077,38.8717949 2.87179487,38.4615385 C3.8974359,33.6410256 7.28205128,29.5384615 12,27.3846154 L12,31.7948718 C10.2564103,32 8.92307692,33.5384615 8.92307692,35.2820513 L8.92307692,38.5641026 C8.92307692,38.8717949 9.12820513,39.0769231 9.43589744,39.0769231 C9.74358974,39.0769231 9.94871795,38.8717949 9.94871795,38.5641026 L9.94871795,35.2820513 C9.94871795,33.8461538 11.0769231,32.7179487 12.5128205,32.7179487 C13.9487179,32.7179487 15.0769231,33.8461538 15.0769231,35.2820513 L15.0769231,38.5641026 C15.0769231,38.8717949 15.2820513,39.0769231 15.5897436,39.0769231 C15.8974359,39.0769231 16.1025641,38.8717949 16.1025641,38.5641026 L16.1025641,35.2820513 C16.1025641,33.5384615 14.7692308,32.1025641 13.025641,31.7948718 L13.025641,26.7692308 C13.3333333,26.6666667 13.7435897,26.4615385 14.0512821,26.3589744 L19.1794872,34.2564103 C19.3846154,34.6666667 19.7948718,34.8717949 20.3076923,34.8717949 L20.3076923,34.8717949 C20.7179487,34.8717949 21.1282051,34.6666667 21.4358974,34.2564103 L26.5641026,26.3589744 C26.8717949,26.4615385 27.2820513,26.5641026 27.5897436,26.7692308 L27.5897436,33.8461538 C26.3589744,34.0512821 25.4358974,35.1794872 25.4358974,36.4102564 C25.4358974,37.8461538 26.6666667,39.0769231 28.1025641,39.0769231 C29.5384615,39.0769231 30.7692308,37.8461538 30.7692308,36.4102564 C30.7692308,35.0769231 29.8461538,34.0512821 28.6153846,33.8461538 L28.6153846,27.1794872 C33.3333333,29.4358974 36.7179487,33.4358974 37.7435897,38.2564103 C37.8461538,38.7692308 38.3589744,39.0769231 38.8717949,38.974359 C39.1794872,39.0769231 39.5897436,38.5641026 39.4871795,37.9487179 Z M20.2051282,32.5128205 L15.6923077,25.4358974 C16.2051282,24.7179487 16.4102564,24 16.6153846,23.3846154 C17.1282051,23.7948718 17.7435897,24.1025641 18.3589744,24.3076923 C18.974359,24.5128205 19.5897436,24.6153846 20.2051282,24.6153846 C20.8205128,24.6153846 21.4358974,24.5128205 22.0512821,24.2051282 C22.5641026,24 23.2820513,23.6923077 23.8974359,23.1794872 C24,23.7948718 24.3076923,24.6153846 24.8205128,25.2307692 L20.2051282,32.5128205 Z M14.4615385,16.9230769 L14.4615385,12.7179487 C17.025641,12.6153846 22.7692308,12.1025641 25.1282051,8.82051282 L25.7435897,9.84615385 C25.9487179,10.1538462 26.0512821,10.5641026 26.0512821,10.8717949 L26.0512821,16.8205128 C25.2307692,20.4102564 22.7692308,21.9487179 21.3333333,22.5641026 C20.6153846,22.8717949 19.7948718,22.8717949 19.0769231,22.5641026 C15.5897436,21.2307692 14.5641026,17.3333333 14.4615385,16.9230769 Z M29.6410256,36.5128205 C29.6410256,37.4358974 28.9230769,38.1538462 28,38.1538462 C27.0769231,38.1538462 26.3589744,37.4358974 26.3589744,36.5128205 C26.3589744,35.5897436 27.0769231,34.8717949 28,34.8717949 C28.8205128,34.8717949 29.6410256,35.5897436 29.6410256,36.5128205 Z M30.4615385,26.1538462 C29.2307692,25.4358974 27.8974359,24.8205128 26.4615385,24.4102564 C25.7435897,23.3846154 25.7435897,22.1538462 25.7435897,21.7435897 C26.6666667,20.6153846 27.4871795,19.1794872 27.8974359,17.3333333 C27.8974359,17.2307692 27.8974359,17.1282051 27.8974359,16.9230769 L27.8974359,10.8717949 C27.8974359,10.1538462 27.6923077,9.43589744 27.3846154,8.82051282 L25.8461538,6.15384615 C25.6410256,5.84615385 25.2307692,5.64102564 24.9230769,5.64102564 C24.5128205,5.74358974 24.2051282,5.94871795 24.1025641,6.35897436 C23.1794872,10.4615385 15.4871795,10.6666667 13.9487179,10.6666667 C13.1282051,10.6666667 12.5128205,11.2820513 12.5128205,12.1025641 L12.5128205,16.8205128 C12.5128205,16.8205128 12.5128205,16.9230769 12.5128205,16.9230769 C12.5128205,16.9230769 12.5128205,17.025641 12.5128205,17.025641 C12.5128205,17.1282051 13.025641,19.4871795 14.6666667,21.5384615 C14.6666667,21.9487179 14.7692308,23.1794872 13.9487179,24.2051282 C12.5128205,24.6153846 11.1794872,25.2307692 9.84615385,25.9487179 L9.84615385,11.6923077 C9.84615385,9.53846154 10.3589744,7.69230769 11.3846154,6.05128205 C14.8717949,0.923076923 20.7179487,2.76923077 22.3589744,3.48717949 C22.7692308,3.69230769 23.2820513,3.69230769 23.6923077,3.58974359 C25.7435897,2.97435897 27.2820513,3.38461538 28.6153846,4.71794872 C29.1282051,5.23076923 29.5384615,5.94871795 29.8461538,6.76923077 C30.0512821,7.48717949 30.2564103,8.30769231 30.2564103,9.12820513 L30.2564103,26.1538462 L30.4615385,26.1538462 Z" id="outline"></path>
            <path d="M17.4358974,15.4871795 L17.9487179,15.4871795 C18.2564103,15.4871795 18.5641026,15.1794872 18.5641026,14.8717949 C18.5641026,14.5641026 18.2564103,14.2564103 17.9487179,14.2564103 L17.4358974,14.2564103 C17.1282051,14.2564103 16.8205128,14.5641026 16.8205128,14.8717949 C16.9230769,15.1794872 17.1282051,15.4871795 17.4358974,15.4871795 Z" id="left-eye"></path>
            <path d="M22.3589744,15.4871795 L22.8717949,15.4871795 C23.1794872,15.4871795 23.4871795,15.1794872 23.4871795,14.8717949 C23.4871795,14.5641026 23.1794872,14.2564103 22.8717949,14.2564103 L22.3589744,14.2564103 C22.0512821,14.2564103 21.7435897,14.5641026 21.7435897,14.8717949 C21.7435897,15.1794872 22.0512821,15.4871795 22.3589744,15.4871795 Z" id="right-eye"></path>
        </g>
    </g>
</svg>