<?xml version="1.0" encoding="UTF-8"?>
<svg width="60px" height="60px" viewBox="0 0 60 60" version="1.1" xmlns="http://www.w3.org/2000/svg" xmlns:xlink="http://www.w3.org/1999/xlink">
    <!-- Generator: Sketch 61 (89581) - https://sketch.com -->
    <title>error</title>
    <desc>Created with Sketch.</desc>
    <g id="error" stroke="none" stroke-width="1" fill="none" fill-rule="evenodd">
        <g transform="translate(10.000000, 13.000000)" fill="#000000" fill-rule="nonzero" id="shape">
            <path d="M17.4783,2.13078 C19.2219,-0.70902 20.7941,-0.71062 22.5349,2.12778 C28.0303,11.08798 33.5243,20.04898 39.0191,29.00938 C39.3445,29.53998 39.6729,30.06818 39.9999,30.59778 L39.9999,30.59778 L39.9999,31.99778 C39.3561,32.87278 38.4625,33.1749807 37.4107,33.1749807 C25.8037,33.16958 14.1965,33.16958 2.5895,33.1749807 C1.5373,33.17538 0.6439,32.87258 -9.99999999e-05,31.99778 L-9.99999999e-05,31.99778 L-9.99999999e-05,30.59778 C5.8261,21.10858 11.6521,11.61958 17.4783,2.13078 Z M19.9543,24.21818 C18.6141,24.24338 17.6249,25.31418 17.6509,26.71098 C17.6767,28.10058 18.6053,29.02458 19.9791,29.0281997 C21.3911,29.03178 22.3527,28.05258 22.3315,26.63278 C22.3103,25.22078 21.2983,24.19278 19.9543,24.21818 Z M20.0531,7.77818 C19.1333,7.74118 18.3815,8.46658 18.1739,9.61858 C18.1153,9.94318 18.0817,10.27938 18.0925,10.60838 C18.1871,13.49858 18.2841,16.38878 18.4073,19.27778 C18.4295,19.80278 18.4495,20.39218 18.6933,20.82698 C18.9905,21.35678 19.5235,21.75438 19.9543,22.20898 C20.3905,21.76738 20.9787,21.39598 21.2227,20.86578 C21.5019,20.25958 21.5433,19.51498 21.5669,18.82618 L21.5669,18.82618 L21.8203,14.64118 C21.8203,13.01358 21.8729,11.38318 21.8023,9.75838 C21.7533,8.63298 20.9431,7.81418 20.0531,7.77818 Z"></path>
        </g>
    </g>
</svg>