<?xml version="1.0" encoding="UTF-8"?>
<svg width="60px" height="60px" viewBox="0 0 60 60" version="1.1" xmlns="http://www.w3.org/2000/svg" xmlns:xlink="http://www.w3.org/1999/xlink">
    <!-- Generator: Sketch 61 (89581) - https://sketch.com -->
    <title>external-link</title>
    <desc>Created with Sketch.</desc>
    <g id="external-link" stroke="none" stroke-width="1" fill="none" fill-rule="evenodd">
        <g transform="translate(10.000000, 13.000000)" fill="#000000" fill-rule="nonzero">
            <path d="M16.7944334,33.5428195 C13.1679154,33.5428195 9.54139736,33.5483871 5.91487933,33.5409325 C2.50491045,33.5338035 0.0866738339,31.3246803 0.0534068653,27.9256579 C-0.0191946321,20.4482702 -0.0158470126,12.969205 0.0517330555,5.4916076 C0.0803970472,2.30582359 2.55491552,0.0161854866 5.73201563,0.00737918619 C10.3349924,-0.00520124299 14.9377599,0.0010889716 19.5407367,0.00591146944 C21.1829533,0.00779853381 22.3083811,1.03016808 22.3050335,2.49285264 C22.3016859,3.87250637 21.1839994,4.93471395 19.5765144,4.94435893 C15.2179139,4.97098752 10.8591041,4.95316523 6.50050352,4.94205253 C5.08341435,4.9382784 4.99365629,5.00432565 4.99344707,6.37433437 C4.99219173,13.3283763 4.99198251,20.2824182 4.99407475,27.23646 C4.9944932,28.5244864 5.04889203,28.583824 6.36366957,28.5844531 C13.3375978,28.5873885 20.3115261,28.5865499 27.2856637,28.5823563 C28.5655003,28.5815176 28.644588,28.4940837 28.6462616,27.2083637 C28.6494,25.2164625 28.6366373,23.2245612 28.6519109,21.2328696 C28.6634181,19.7324437 29.5928011,18.7232837 30.972648,18.6681394 C32.3524949,18.6129952 33.4862917,19.5527533 33.5134912,21.0125024 C33.5628685,23.6652956 33.5829544,26.3275241 33.4128533,28.9727691 C33.2557245,31.4137915 30.764468,33.5084331 28.1968437,33.530868 C24.3962495,33.564416 20.5952369,33.5394648 16.7944334,33.5394648 L16.7944334,33.5428195 Z" id="Fill-1"></path>
            <path d="M31.3230373,5.00396931 C30.4379888,5.00396931 29.7872365,5.0213116 29.1375397,5.00058544 C27.4674936,4.94707813 26.3500487,3.91034731 26.3572253,2.44153959 C26.3639798,1.02010594 27.5470699,0.00685066883 29.2211264,0.00388978931 C31.9279859,-0.000974512739 34.6350563,-0.00160898692 37.3421267,0.00388978931 C38.9062117,0.0072736516 39.9968496,1.06896045 39.9991715,2.62913246 C40.0038152,5.37640565 39.9886176,8.12367885 39.9615997,10.8705291 C39.9512568,11.928409 39.5419773,12.8105396 38.5615219,13.2937975 C37.7205888,13.7083206 36.7612411,13.7664807 36.0910696,13.0985909 C35.5669637,12.5764187 35.1939896,11.7970729 35.0095077,11.0670046 C34.8284032,10.3504717 34.9700363,9.55209173 34.9700363,8.57880835 C34.5457704,8.97197083 34.2669368,9.21307104 34.0071003,9.47320544 C29.356216,14.128554 24.7030101,18.7817876 20.0626798,23.4477107 C19.3549366,24.1595908 18.5716275,24.6517313 17.5426242,24.4827496 C15.8246635,24.2006201 14.9326495,22.2132355 15.8516814,20.7241246 C16.0880883,20.3413252 16.4228574,20.0120331 16.7441175,19.6895087 C21.2900961,15.1284853 25.8419849,10.5731722 30.3902853,6.01405221 C30.6524437,5.7511684 30.8951829,5.46882739 31.3230373,5.00396931" id="Fill-3"></path>
        </g>
    </g>
</svg>