<?xml version="1.0" encoding="UTF-8"?>
<svg width="60px" height="60px" viewBox="0 0 60 60" version="1.1" xmlns="http://www.w3.org/2000/svg" xmlns:xlink="http://www.w3.org/1999/xlink">
    <!-- Generator: Sketch 61 (89581) - https://sketch.com -->
    <title>fill-search</title>
    <desc>Created with Sketch.</desc>
    <g id="fill-search" stroke="none" stroke-width="1" fill="none" fill-rule="evenodd">
        <g transform="translate(11.000000, 10.000000)" fill="#000000" fill-rule="nonzero">
            <path d="M18.7905384,0.192073793 C29.1674615,0.241345769 37.5543845,8.67903807 37.4921987,19.0065381 C37.4286155,29.3323072 28.9093845,37.7599995 18.6109231,37.684038 C8.29303845,37.6082687 -0.026576923,29.2007687 2.56862786e-05,18.8761534 C0.0268846155,8.46903807 8.39996155,0.143653461 18.7905384,0.192073793 Z M22.4759423,11.0212115 C19.2703654,8.68621155 14.8192115,8.95986537 11.8719038,11.6729423 C8.9159423,14.3944808 8.31228845,18.8623654 10.4388269,22.2817884 C12.8305577,26.12775 16.8140192,27.0856345 22.0878654,25.023327 C23.1128654,26.0635192 24.1601731,27.1398655 25.2228655,28.200827 C26.0797885,29.0565962 27.1759422,29.1612115 27.8511345,28.475827 C28.5640192,27.7517885 28.4544037,26.954673 27.4947885,25.9890962 C26.4599807,24.9481346 25.4172885,23.91525 24.4044038,22.9050577 C26.8515192,17.7773654 26.1709422,13.7125577 22.4759423,11.0212115 Z M17.5536346,12.1642747 C20.6380577,12.1594808 23.1619038,14.6623654 23.1965192,17.7600577 C23.2309423,20.8533269 20.6215192,23.4756346 17.5344038,23.4500577 C14.4588269,23.4244808 11.9565192,20.8840961 11.9595905,17.79025 C11.9626731,14.6939038 14.4730577,12.1690961 17.5536346,12.1642747 Z" id="Combined-Shape"></path>
            <path d="M11.9595905,17.79025 C11.9626731,14.6939038 14.4730577,12.1690961 17.5536346,12.1642747 C20.6380577,12.1594808 23.1619038,14.6623654 23.1965192,17.7600577 C23.2309423,20.8533269 20.6215192,23.4756346 17.5344038,23.4500577 C14.4588269,23.4244808 11.9565192,20.8840961 11.9595905,17.79025" id="Fill-6"></path>
        </g>
    </g>
</svg>