<?xml version="1.0" encoding="UTF-8"?>
<svg width="60px" height="60px" viewBox="0 0 60 60" version="1.1" xmlns="http://www.w3.org/2000/svg" xmlns:xlink="http://www.w3.org/1999/xlink">
    <!-- Generator: Sketch 61 (89581) - https://sketch.com -->
    <title>fill-check</title>
    <desc>Created with Sketch.</desc>
    <g id="fill-check" stroke="none" stroke-width="1" fill="none" fill-rule="evenodd">
        <g transform="translate(10.000000, 10.000000)" fill="#000000" fill-rule="nonzero" id="Combined-Shape">
            <path d="M20.0178889,0.220882947 C31.0694445,0.223535882 39.9861112,9.08629832 39.9910041,20.0732596 C39.9958888,31.1256352 31.0794445,39.9952485 19.9672222,39.9910527 C8.91677779,39.9870717 0.003,31.1220995 -0.000112518104,20.1333701 C-0.003,9.06441987 8.88966667,0.218453009 20.0178889,0.220882947 Z M28.5661112,12.4560221 C27.4774445,12.1433149 26.6367778,12.5994475 25.8852222,13.3523757 C23.0983333,16.1444199 20.3003333,18.9249724 17.3052222,21.9103867 C16.1692222,20.7218785 15.1565555,19.6038674 14.0727778,18.5587845 C13.6674445,18.1678453 13.1312222,17.818895 12.5938889,17.6754696 C11.4987778,17.3828729 10.4765555,17.8787845 9.94011112,18.7956906 C9.34677779,19.8098343 9.46588888,20.8871823 10.371,21.8228729 C11.9858889,23.4924862 13.6747778,25.0920442 15.2632222,26.7855248 C16.4978889,28.1015469 17.8978889,28.2310496 19.2034445,26.9722651 C20.3721111,25.8458563 21.5105555,24.6887293 22.6612222,23.5441989 C24.9625555,21.2549171 27.2818888,18.9830939 29.5574445,16.6688398 C30.9996667,15.2023205 30.4627779,13.0007735 28.5661112,12.4560221 Z"></path>
        </g>
    </g>
</svg>