<?xml version="1.0" encoding="UTF-8"?>
<svg width="60px" height="60px" viewBox="0 0 60 60" version="1.1" xmlns="http://www.w3.org/2000/svg" xmlns:xlink="http://www.w3.org/1999/xlink">
    <!-- Generator: Sketch 61 (89581) - https://sketch.com -->
    <title>fill-plus</title>
    <desc>Created with Sketch.</desc>
    <g id="fill-plus" stroke="none" stroke-width="1" fill="none" fill-rule="evenodd">
        <g transform="translate(10.000000, 10.000000)" fill="#000000" fill-rule="nonzero" id="Fill-1">
            <path d="M19.9944471,-2.35294118e-05 C31.0372707,-2.35294118e-05 39.9890352,8.95174117 39.9890352,19.9943294 C39.9890352,31.0371531 31.0372707,39.9889176 19.9944471,39.9889176 C8.95185883,39.9889176 -0.000141176471,31.0371531 -0.000141176471,19.9943294 C-0.000141176471,8.95174117 8.95185883,-2.35294118e-05 19.9944471,-2.35294118e-05 Z M22.0365647,9.63668235 L17.9226823,9.63668235 C17.9226823,12.1870353 17.9033882,14.6672706 17.9360941,17.1468 C17.9443294,17.7743294 17.7549177,17.9684471 17.1295059,17.9508 C15.6803294,17.9091529 14.2290353,17.9376235 12.7786823,17.9376235 L12.7786823,17.9376235 L9.62174117,17.9376235 L9.62174117,22.0512706 C12.1723294,22.0512706 14.6525647,22.0705647 17.1320941,22.0380941 C17.7596235,22.0298588 17.9537412,22.2190353 17.9358588,22.8446823 C17.8944471,24.2938588 17.9226823,25.7451529 17.9226823,27.1955059 L17.9226823,27.1955059 L17.9226823,30.3522117 L22.0368,30.3522117 C22.0368,27.8018589 22.0558588,25.3216235 22.0231529,22.8420941 C22.0151529,22.2145647 22.2043294,22.0204471 22.8299765,22.0380941 C24.2791529,22.0797412 25.7302118,22.0512706 27.1808,22.0512706 L27.1808,22.0512706 L30.3671531,22.0512706 L30.3671531,17.9376235 C27.7871531,17.9376235 25.3069177,17.9183294 22.8273882,17.9508 C22.1998588,17.9590353 22.0055059,17.7698588 22.0233882,17.1444471 C22.0650353,15.6950353 22.0365647,14.2437412 22.0365647,12.7933882 L22.0365647,12.7933882 L22.0365647,9.63668235 Z"></path>
        </g>
    </g>
</svg>