<?xml version="1.0" encoding="UTF-8"?>
<svg width="60px" height="60px" viewBox="0 0 60 60" version="1.1" xmlns="http://www.w3.org/2000/svg" xmlns:xlink="http://www.w3.org/1999/xlink">
    <!-- Generator: Sketch 61 (89581) - https://sketch.com -->
    <title>flag-inactive</title>
    <desc>Created with Sketch.</desc>
    <g id="flag-inactive" stroke="none" stroke-width="1" fill="none" fill-rule="evenodd">
        <g transform="translate(15.000000, 10.000000)" fill="#000000" fill-rule="nonzero" id="Fill-1">
            <path d="M27.1823044,0.112317881 C27.8705547,0.116821192 28.5556187,0.615629139 29.2420104,0.884503312 C28.9300142,1.55708609 28.7645899,2.36794702 28.2802656,2.87735099 C26.1520532,5.11576159 23.9317022,7.26675497 21.5849597,9.60900662 C23.9117876,11.9207947 26.1302798,14.1268874 28.3519583,16.3300662 C28.918862,16.8921855 29.7276624,17.5226491 29.1623518,18.3207947 C28.8267236,18.794702 27.9061356,19.0654304 27.2462968,19.0699338 C19.5058701,19.1197351 11.7649123,19.1019867 4.02395448,19.1019867 L2.46450451,19.1019867 L2.46450451,40 L-7.3155863e-05,40 L0.000663821716,2.37854304 L0.000663821716,2.37854304 C0.000929350403,0.255629139 0.172991939,0.078410596 2.23482219,0.0781456954 C10.5509152,0.0768211921 18.8667425,0.0582781457 27.1823044,0.112317881 Z M25.049578,2.67602649 L2.53752489,2.67602649 L2.53752489,16.4964238 L25.0896728,16.4964238 C23.1085633,14.5549668 21.3826268,12.8749668 19.6702323,11.1817219 C18.2055761,9.73324503 18.2106212,9.44291391 19.6920057,7.97165563 C21.3964343,6.2794702 23.1082978,4.59417219 25.049578,2.67602649 Z"></path>
        </g>
    </g>
</svg>