<?xml version="1.0" encoding="UTF-8"?>
<svg width="60px" height="60px" viewBox="0 0 60 60" version="1.1" xmlns="http://www.w3.org/2000/svg" xmlns:xlink="http://www.w3.org/1999/xlink">
    <!-- Generator: Sketch 61 (89581) - https://sketch.com -->
    <title>future</title>
    <desc>Created with Sketch.</desc>
    <g id="future" stroke="none" stroke-width="1" fill="none" fill-rule="evenodd">
        <g transform="translate(10.000000, 10.000000)" fill="#000000" fill-rule="nonzero">
            <path d="M35.4877069,7.17101053 C35.4877069,6.37143157 35.4652984,5.57101053 35.4925235,4.77227368 C35.542576,3.31164211 36.4676021,2.31522105 37.7052984,2.3499579 C38.9455077,2.38469474 39.7869739,3.39416843 39.7896963,4.86953685 C39.7940464,7.39543157 39.7970261,9.92132632 39.7888587,12.447221 C39.7838325,13.9773263 38.9553507,14.8788 37.4131517,14.9036421 C34.7963979,14.9457474 32.1781781,14.9385895 29.5612147,14.906379 C28.3046701,14.8908 27.4336755,13.9836421 27.4110576,12.7950105 C27.3882304,11.6011158 28.2125235,10.6617474 29.4588064,10.5726947 C30.3522093,10.5089053 31.25378,10.5604842 32.3695917,10.5604842 C30.3741989,8.21964211 28.2223664,6.46974736 25.5373403,5.44385264 C16.1032042,1.8388 6.10927749,7.60553685 4.44603141,17.6059579 C2.86885864,27.0893264 10.4370262,35.8215368 20.0615288,35.6230104 C27.7352461,35.4649053 33.9794347,30.0691157 35.2206912,22.5236421 C35.4856125,20.9131158 36.4696963,20.1236421 37.8678115,20.4002737 C39.1057173,20.6449053 39.7050891,21.7345895 39.4299059,23.2398526 C37.8466597,31.9019579 31.6696963,38.1383789 23.125822,39.7009053 C12.9729424,41.5577475 2.65168586,34.5657475 0.464670157,24.3497474 C-1.95815707,13.0314316 5.3362932,2.12111579 16.703623,0.281747368 C22.9970262,-0.736568421 28.57378,1.03774737 33.306136,5.35964211 C33.9695917,5.96532632 34.5300104,6.68553685 35.1379685,7.35290525 L35.4877069,7.17101053 Z" id="Fill-1"></path>
            <path d="M16.0040124,15.0284619 C16.0040124,13.5070605 15.9931027,11.9858819 16.0072621,10.4644805 C16.0202608,9.08487435 16.989596,8.05373693 18.2903993,8.00201283 C19.5986304,7.95006581 20.6998101,8.90852197 20.7404312,10.3064099 C20.8061213,12.5682238 20.8033358,14.8336048 20.7483233,17.0956417 C20.7297536,17.8683816 20.9797474,18.2177421 21.7554941,18.396101 C23.2152999,18.7318617 24.6590894,19.1356216 26.0998614,19.5429488 C27.5643096,19.9569644 28.2794728,21.078619 27.8990275,22.2954726 C27.48446,23.6209022 26.2693093,24.2745876 24.8074144,23.8913389 C22.5040827,23.2873711 20.2091073,22.6537511 17.9183101,22.0080918 C16.5439247,21.6206071 16.0172433,20.9379384 16.0067978,19.5924434 C15.9947276,18.0710419 16.0040124,16.5498634 16.0040124,15.0284619" id="Fill-4"></path>
        </g>
    </g>
</svg>