<?xml version="1.0" encoding="UTF-8"?>
<svg width="60px" height="60px" viewBox="0 0 60 60" version="1.1" xmlns="http://www.w3.org/2000/svg" xmlns:xlink="http://www.w3.org/1999/xlink">
    <!-- Generator: Sketch 61 (89581) - https://sketch.com -->
    <title>id-card</title>
    <desc>Created with Sketch.</desc>
    <g id="id-card" stroke="none" stroke-width="1" fill="none" fill-rule="evenodd">
        <g transform="translate(10.000696, 18.739130)" fill="#000000" fill-rule="nonzero">
            <path d="M12.1686956,4.85095674 C12.4626086,4.85095674 12.7008695,5.08921761 12.7008695,5.38313065 L12.7008695,14.1518263 C12.7008695,14.4474785 12.4573913,14.6892176 12.1617391,14.6892176 L5.41043478,14.6892176 C5.11478261,14.6892176 4.87478261,14.4474785 4.87478261,14.1518263 L4.87478261,5.38313065 C4.87478261,5.08921761 5.11130435,4.85095674 5.40521739,4.85095674 L12.1686956,4.85095674 Z M11.72,5.83008717 L5.85043478,5.83008717 L5.85043478,13.7118263 L11.72,13.7118263 L11.72,5.83008717 Z" id="box"></path>
            <path d="M23.0024347,7.85669587 L16.1415652,7.85669587 C15.8685217,7.85669587 15.6493913,7.63756543 15.6493913,7.36800022 C15.6493913,7.098435 15.8685217,6.87930456 16.1415652,6.87930456 L23.0024347,6.87930456 C23.272,6.87930456 23.4911304,7.098435 23.4911304,7.36800022 C23.4911304,7.63756543 23.272,7.85669587 23.0024347,7.85669587" id="line"></path>
            <path d="M23.0024347,12.7173915 L16.1415652,12.7173915 C15.8685217,12.7173915 15.6493913,12.4982611 15.6493913,12.2286958 C15.6493913,11.9573915 15.8685217,11.7400002 16.1415652,11.7400002 L23.0024347,11.7400002 C23.272,11.7400002 23.4911304,11.9573915 23.4911304,12.2286958 C23.4911304,12.4982611 23.272,12.7173915 23.0024347,12.7173915" id="line"></path>
            <path d="M33.7344347,7.85669587 L26.8996521,7.85669587 C26.631826,7.85669587 26.4109565,7.63756543 26.4109565,7.36800022 C26.4109565,7.098435 26.631826,6.87930456 26.8996521,6.87930456 L33.7344347,6.87930456 C34.0022608,6.87930456 34.2213913,7.098435 34.2213913,7.36800022 C34.2213913,7.63756543 34.0022608,7.85669587 33.7344347,7.85669587" id="line"></path>
            <path d="M33.7344347,12.7173915 L26.8996521,12.7173915 C26.631826,12.7173915 26.4109565,12.4982611 26.4109565,12.2286958 C26.4109565,11.9573915 26.631826,11.7400002 26.8996521,11.7400002 L33.7344347,11.7400002 C34.0022608,11.7400002 34.2213913,11.9573915 34.2213913,12.2286958 C34.2213913,12.4982611 34.0022608,12.7173915 33.7344347,12.7173915" id="line"></path>
            <path d="M5.42243478,18.6090437 C5.1546087,18.6090437 4.93547826,18.3899133 4.93547826,18.120348 C4.93547826,17.8490437 5.1546087,17.6316524 5.42243478,17.6316524 L33.7633043,17.6316524 C34.0328695,17.6316524 34.252,17.8490437 34.252,18.120348 C34.252,18.3899133 34.0328695,18.6090437 33.7633043,18.6090437 L5.42243478,18.6090437 Z" id="line"></path>
            <path d="M36.1443478,-4.08562073e-14 C37.7617391,-4.08562073e-14 39.0782608,1.31652174 39.0782608,2.93391304 L39.0782608,20.5443478 C39.0782608,22.1617391 37.7617391,23.4782609 36.1443478,23.4782609 L2.93217392,23.4782609 C1.31652174,23.4782609 -2.84217094e-14,22.1617391 -2.84217094e-14,20.5443478 L-2.84217094e-14,2.93391304 C-2.84217094e-14,1.31652174 1.31652174,-4.08562073e-14 2.93217392,-4.08562073e-14 L36.1443478,-4.08562073e-14 Z M36.1443478,1.95652174 L2.93217392,1.95652174 C2.39478261,1.95652174 1.95652174,2.39652174 1.95652174,2.93391304 L1.95652174,20.5443478 C1.95652174,21.0834783 2.39478261,21.5217391 2.93217392,21.5217391 L36.1443478,21.5217391 C36.6834782,21.5217391 37.1217391,21.0834783 37.1217391,20.5443478 L37.1217391,2.93391304 C37.1217391,2.39652174 36.6834782,1.95652174 36.1443478,1.95652174 Z" id="border"></path>
        </g>
    </g>
</svg>