<?xml version="1.0" encoding="UTF-8"?>
<svg width="60px" height="60px" viewBox="0 0 60 60" version="1.1" xmlns="http://www.w3.org/2000/svg" xmlns:xlink="http://www.w3.org/1999/xlink">
    <!-- Generator: Sketch 61 (89581) - https://sketch.com -->
    <title>insurance</title>
    <desc>Created with Sketch.</desc>
    <g id="insurance" stroke="none" stroke-width="1" fill="none" fill-rule="evenodd">
        <g transform="translate(16.000000, 10.000000)" fill="#000000" fill-rule="nonzero">
            <path d="M13.4919658,0.683761026 C15.5876923,0.683761026 17.2902564,2.38803453 17.2902564,4.48205162 C17.2902564,4.48547043 17.2868376,4.48888923 17.2868376,4.49230803 L17.2868376,4.49230803 L20.1500854,4.49230803 C20.68,4.49230803 21.1107692,4.92478667 21.1107692,5.4547012 L21.1107692,5.4547012 L21.1107692,7.49059864 L25.9073505,7.49059864 C26.4389744,7.49059864 26.8680342,7.91965846 26.8680342,8.45128239 L26.8680342,8.45128239 L26.8680342,38.2017097 C26.8680342,38.7350431 26.4389744,39.1641029 25.9073505,39.1641029 L25.9073505,39.1641029 L0.96034188,39.1641029 C0.430427351,39.1641029 -0.000341880341,38.7350431 -0.000341880341,38.2017097 L-0.000341880341,38.2017097 L-0.000341880341,8.45128239 C-0.000341880341,7.91965846 0.430427351,7.49059864 0.96034188,7.49059864 L0.96034188,7.49059864 L5.74495726,7.49059864 L5.74495726,5.4547012 C5.74495726,4.92478667 6.17572649,4.49230803 6.70735043,4.49230803 L6.70735043,4.49230803 L9.70051282,4.49230803 C9.70051282,4.48888923 9.69880342,4.48547043 9.69880342,4.48205162 C9.69880342,2.38803453 11.4013675,0.683761026 13.4919658,0.683761026 Z M5.74495726,9.41367556 L1.92273505,9.41367556 L1.92273505,37.2410259 L24.9466667,37.2410259 L24.9466667,9.41367556 L21.1107692,9.41367556 L21.1107692,10.3213679 C21.1107692,10.8529918 20.68,11.283761 20.1500854,11.283761 L20.1500854,11.283761 L6.70735043,11.283761 C6.17572649,11.283761 5.74495726,10.8529918 5.74495726,10.3213679 L5.74495726,10.3213679 L5.74495726,9.41367556 Z M13.4919658,2.60683795 C12.4594872,2.60683795 11.6218803,3.44786359 11.6218803,4.48205162 L11.6218803,4.48205162 L11.6184615,4.49230803 L15.3688889,4.49230803 L15.3688889,4.49230803 L15.3671795,4.48205162 C15.3671795,3.44786359 14.5261538,2.60683795 13.4919658,2.60683795 Z" id="background"></path>
            <path d="M9.65538462,15.1011966 L6.27589744,17.6413675 L5.5340171,16.694359 C5.20752136,16.2755556 4.60239316,16.2054701 4.18529915,16.528547 C3.76649572,16.8567521 3.69299146,17.4635897 4.02119658,17.8789744 L5.27589744,19.4738462 C5.43487179,19.7182906 5.71863248,19.8926495 6.01094017,19.92 C6.04170941,19.9234188 6.06905983,19.9234188 6.09982906,19.9234188 C6.31521367,19.9234188 6.5340171,19.8499146 6.70666667,19.7234188 L10.8109402,16.6396582 C11.2365812,16.3217094 11.3220513,15.7182906 11.0023931,15.2926495 C10.6844444,14.8687179 10.0793162,14.7832479 9.65538462,15.1011966" id="Fill-4"></path>
            <path d="M14.3996582,17.4516239 C14.3996582,17.9849572 14.8304274,18.4123077 15.3603418,18.4123077 L22.071453,18.4123077 C22.6030769,18.4123077 23.0338462,17.9849572 23.0338462,17.4516239 C23.0338462,16.92 22.6030769,16.4909402 22.071453,16.4909402 L15.3603418,16.4909402 C14.8304274,16.4909402 14.3996582,16.92 14.3996582,17.4516239" id="Fill-6"></path>
            <path d="M9.65538462,22.4078633 L6.27589744,24.9480342 L5.5340171,24.0027351 C5.20752136,23.5822223 4.60239316,23.5121367 4.18529915,23.8386325 C3.76649572,24.1634188 3.69299146,24.7702564 4.02119658,25.1873505 L5.27589744,26.7822223 C5.43487179,27.0249572 5.71863248,27.2010256 6.01094017,27.2266667 C6.04170941,27.2300854 6.06905983,27.2317949 6.09982906,27.2317949 C6.31521367,27.2317949 6.5340171,27.1582906 6.70666667,27.0283761 L6.70666667,27.0300854 L10.8109402,23.9463248 C11.2365812,23.6283761 11.3220513,23.0249572 11.0023931,22.5993162 C10.6844444,22.1753846 10.0793162,22.0916239 9.65538462,22.4078633" id="Fill-8"></path>
            <path d="M22.0719658,23.7967521 L15.3608547,23.7967521 C14.8309402,23.7967521 14.400171,24.2275213 14.400171,24.7574359 C14.400171,25.2890598 14.8309402,25.719829 15.3608547,25.719829 L22.0719658,25.719829 C22.6018803,25.719829 23.0326495,25.2890598 23.0326495,24.7574359 C23.0326495,24.2275213 22.6018803,23.7967521 22.0719658,23.7967521" id="Fill-10"></path>
            <path d="M9.65538462,29.7162393 L6.27589744,32.2547008 L5.5340171,31.3094017 C5.20752136,30.8905983 4.60239316,30.8188034 4.18529915,31.1470085 C3.76649572,31.4717949 3.69299146,32.0786325 4.02119658,32.4940171 L5.27589744,34.0888889 C5.43487179,34.3333333 5.71863248,34.5094017 6.01094017,34.5333333 C6.04170941,34.5367521 6.06905983,34.540171 6.09982906,34.540171 C6.31521367,34.540171 6.5340171,34.4649572 6.70666667,34.3367521 L10.8109402,31.2529915 C11.2365812,30.9367521 11.3220513,30.3316239 11.0023931,29.9059829 C10.6844444,29.4820513 10.0793162,29.3965812 9.65538462,29.7162393" id="Fill-12"></path>
            <path d="M22.0719658,31.1051282 L15.3608547,31.1051282 C14.8309402,31.1051282 14.400171,31.5358974 14.400171,32.065812 C14.400171,32.5974359 14.8309402,33.0282051 15.3608547,33.0282051 L22.0719658,33.0282051 C22.6018803,33.0282051 23.0326495,32.5974359 23.0326495,32.065812 C23.0326495,31.5358974 22.6018803,31.1051282 22.0719658,31.1051282" id="Fill-14"></path>
        </g>
    </g>
</svg>