<?xml version="1.0" encoding="UTF-8"?>
<svg width="60px" height="60px" viewBox="0 0 60 60" version="1.1" xmlns="http://www.w3.org/2000/svg" xmlns:xlink="http://www.w3.org/1999/xlink">
    <!-- Generator: Sketch 61 (89581) - https://sketch.com -->
    <title>money</title>
    <desc>Created with Sketch.</desc>
    <g id="money" stroke="none" stroke-width="1" fill="none" fill-rule="evenodd">
        <path d="M29.9683478,23.8464348 L29.9683478,25.0551304 C32.1335652,25.2742609 33.3944348,26.4829565 33.5109565,28.3977391 L31.277913,28.3977391 C31.2605217,27.5751304 30.6570435,26.8690435 29.9683478,26.8864348 L29.9683478,29.6742609 C31.464,30.0446957 32.1196522,30.3125217 32.7561739,30.8168696 C33.4953043,31.3873043 33.8987826,32.262087 33.8987826,33.3194783 C33.8987826,34.1768696 33.5961739,34.929913 33.0083478,35.5351304 C32.2535652,36.3264348 31.4466087,36.662087 29.9683478,36.8116522 L29.9683478,38.1403478 L29.0448696,38.1403478 L29.0448696,36.8116522 C26.6587826,36.6290435 25.3666087,35.3177391 25.1318261,32.8986087 L27.3648696,32.8986087 L27.3648696,32.9507826 C27.3648696,34.0064348 27.9857391,34.7646957 29.0448696,34.982087 L29.0448696,31.7907826 C28.9944348,31.7733913 28.9770435,31.7733913 28.944,31.7577391 C28.9266087,31.7577391 28.8605217,31.7403478 28.7248696,31.689913 C28.6744348,31.6742609 28.5735652,31.6568696 28.4570435,31.622087 C26.3074783,31.0846957 25.3996522,30.1455652 25.3996522,28.4655652 C25.3996522,27.3907826 25.7857391,26.5507826 26.5753043,25.9281739 C27.2309565,25.4081739 27.8344348,25.2064348 29.0448696,25.0551304 L29.0448696,23.8464348 L29.9683478,23.8464348 Z M29.9683478,32.0429565 L29.9683478,34.982087 C31.0935652,34.7977391 31.664,34.2777391 31.664,33.436 C31.664,32.7333913 31.277913,32.4116522 29.9683478,32.0429565 Z M29.0448696,26.8864348 C28.1718261,26.9194783 27.6344348,27.4238261 27.6344348,28.196 C27.6344348,28.8846957 27.9526957,29.1716522 29.0448696,29.4568696 L29.0448696,26.8864348 Z" id="dollar-sign" fill="#000000" fill-rule="nonzero"></path>
        <path d="M40.9302609,18.7389569 C43.5963478,18.7389569 46.0346087,19.0189569 48.3876522,19.5946091 C48.8241739,19.7024352 49.1337391,20.0937395 49.1337391,20.5459134 L49.1337391,40.3615656 C49.1337391,40.6641743 48.9946087,40.9459134 48.758087,41.1320004 C48.5215652,41.3198265 48.2137391,41.3841743 47.9215652,41.31287 C45.7233043,40.7754787 43.4363478,40.5146091 40.9302609,40.5146091 C37.172,40.5146091 33.3824348,41.1163482 29.718087,41.6972178 C25.9806957,42.2885221 22.1146087,42.9024352 18.2015652,42.9024352 L18.1998261,42.9024352 C15.5354783,42.9024352 13.0972174,42.620696 10.7441739,42.046783 C10.305913,41.9372178 9.99982609,41.5476526 9.99982609,41.0954787 L9.99982609,21.2833047 C9.99982609,20.7424352 10.4415652,20.300696 10.9824348,20.300696 C11.0606957,20.300696 11.1389565,20.3093917 11.2172174,20.3302613 C13.412,20.8659134 15.6972174,21.126783 18.1998261,21.126783 C21.9598261,21.126783 25.7476522,20.526783 29.412,19.9441743 C33.1511304,19.3511308 37.0172174,18.7389569 40.9302609,18.7389569 Z M40.9302609,20.6954786 C37.172,20.6954786 33.3824348,21.2972178 29.7198261,21.8780873 C25.9806957,22.4693917 22.1146087,23.0833047 18.1998261,23.0833047 C15.9893913,23.0833047 13.9354783,22.8920004 11.9563478,22.4972178 L11.9563478,40.3180873 C13.9250435,40.7389569 15.9772174,40.9459134 18.1998261,40.9459134 C21.9598261,40.9459134 25.7476522,40.3441743 29.412,39.7633047 C33.1511304,39.1702613 37.0172174,38.5580873 40.9302609,38.5580873 C43.1406957,38.5580873 45.1963478,38.7476526 47.1772174,39.1459134 L47.1772174,21.3233047 C45.2067826,20.900696 43.1546087,20.6954786 40.9302609,20.6954786 Z" id="border" fill="#000000" fill-rule="nonzero"></path>
    </g>
</svg>