<?xml version="1.0" encoding="UTF-8"?>
<svg width="60px" height="60px" viewBox="0 0 60 60" version="1.1" xmlns="http://www.w3.org/2000/svg" xmlns:xlink="http://www.w3.org/1999/xlink">
    <!-- Generator: Sketch 61 (89581) - https://sketch.com -->
    <title>patient</title>
    <desc>Created with Sketch.</desc>
    <g id="patient" stroke="none" stroke-width="1" fill="none" fill-rule="evenodd">
        <g transform="translate(11.000000, 10.000000)" fill="#000000" fill-rule="nonzero">
            <path d="M19.9729915,0.683590085 C23.7815385,0.683590085 26.8806838,3.78444479 26.8806838,7.59128239 L26.8806838,7.59128239 L26.8806838,9.28188069 C27.2875213,9.42205162 27.6584615,9.65965846 27.9558974,9.98444479 C28.4430769,10.5177782 28.6875213,11.2391456 28.6225641,11.9605131 L28.6225641,11.9605131 L28.4242735,14.1331628 C28.3422223,15.0664961 27.754188,15.8340174 26.9405128,16.1758977 L26.9405128,16.1758977 L26.9405128,16.3553849 C26.9439316,17.9622226 26.3935043,19.5331628 25.3849572,20.7793166 L25.3849572,20.7793166 L24.6960684,21.632308 L24.6960684,21.632308 L24.6960684,21.6699149 C24.6875213,21.7126499 24.4806838,23.2083764 25.3490598,24.4340174 C25.4242735,24.4647867 25.4977777,24.5006841 25.5661538,24.5468379 C32.1661538,26.6169234 37.0806838,31.7553849 38.4225641,38.0391456 C38.5336752,38.5605131 38.2020513,39.0699149 37.6823931,39.1810259 C37.6140171,39.1947012 37.5473505,39.2015388 37.4806838,39.2015388 C37.0362393,39.2015388 36.6396582,38.8904277 36.5422223,38.4391456 C35.3969231,33.0852995 31.3148718,28.6476926 25.7695726,26.6408551 C24.9644444,29.5229064 22.345641,31.572479 19.2447864,31.572479 C16.1370941,31.572479 13.5165812,29.5160687 12.7148718,26.6271798 C7.14905983,28.6271798 3.04820513,33.0750431 1.90290598,38.4425644 C1.80717949,38.8972653 1.40717949,39.2049576 0.962735043,39.2049576 C0.896068376,39.2049576 0.82940171,39.19812 0.762735043,39.1844448 C0.241367521,39.0733336 -0.0885470085,38.563932 0.0208547008,38.0425644 C1.36615385,31.738291 6.31145299,26.5776072 12.9524787,24.5246157 C12.9952136,24.4972653 13.0413675,24.4767525 13.0909402,24.457949 C13.894359,23.3280346 13.7866667,21.9827354 13.754188,21.7434192 C13.728547,21.7092311 13.6960684,21.6801713 13.6704274,21.6459833 L13.6704274,21.6459833 L12.9917949,20.789573 C12.0174359,19.5536756 11.4789744,18.0083764 11.4789744,16.4374362 L11.4789744,16.4374362 L11.4789744,16.1673508 C10.6105983,15.8408551 10.0003419,15.0716243 9.90461538,14.1348721 L9.90461538,14.1348721 L9.68581197,12.0083764 C9.61059829,11.2784618 9.84991453,10.5451285 10.3405128,10.0015388 C10.6447864,9.66307726 11.0294017,9.41692342 11.4516239,9.27675248 L11.4516239,9.27675248 L11.4516239,7.59128239 C11.4516239,3.78444479 14.5473505,0.683590085 18.3576069,0.683590085 L18.3576069,0.683590085 Z M22.8396582,23.2818807 C21.7524787,23.9502567 20.4926495,24.3143593 19.1781197,24.3143593 C17.8926495,24.3143593 16.6670085,23.963932 15.5986325,23.3280346 C15.4618803,24.0938465 15.1507692,24.9741884 14.5080342,25.7827354 C14.9678633,28.0169234 16.9046154,29.6494021 19.2447864,29.6494021 C21.5747008,29.6494021 23.494359,28.023761 23.9627351,25.7998294 C23.2909402,24.9707695 22.9747008,24.0630772 22.8396582,23.2818807 Z M14.9490598,5.5041029 C14.9490598,7.02717983 15.1815385,11.1314533 12.5712821,11.1314533 C12.4772649,11.1314533 12.3986325,11.1006841 12.3336752,11.0545303 C12.3131624,11.0545303 12.294359,11.0664961 12.2704274,11.0664961 C12.0105983,11.0664961 11.8430769,11.206667 11.7695726,11.2904277 C11.6926495,11.372479 11.5729915,11.5519662 11.5986325,11.8100858 L11.5986325,11.8100858 L11.8191453,13.9365815 C11.8464957,14.2117952 12.0738462,14.4186328 12.3473505,14.4186328 C12.8806838,14.4186328 13.4020513,14.8476926 13.4020513,15.3776072 L13.4020513,15.3776072 L13.4020513,16.4374362 C13.4020513,17.5793166 13.7935043,18.7006841 14.5011966,19.5964106 L14.5011966,19.5964106 L15.1781197,20.4545303 C16.1507692,21.6870089 17.6088889,22.3912824 19.1781197,22.3912824 C20.7234188,22.3912824 22.1695726,21.6989747 23.1439316,20.4955559 L23.1439316,20.4955559 L23.8892308,19.5707695 C24.6208547,18.6647867 25.0208547,17.5246157 25.0174359,16.3605131 L25.0174359,16.3605131 L25.0174359,15.4117952 C25.0140171,15.1536756 25.1182906,14.9109405 25.2977777,14.7280346 C25.4772649,14.5485474 25.7217094,14.4459833 25.9781197,14.4459833 C26.2567521,14.4459833 26.485812,14.2357269 26.5097436,13.9588038 L26.5097436,13.9588038 L26.7063248,11.789573 C26.7302564,11.5348721 26.6071795,11.3622226 26.5370941,11.2818807 C26.4635897,11.2015388 26.2994872,11.0664961 26.0464957,11.0664961 C26.0191453,11.0664961 25.9952136,11.0528208 25.9695726,11.0511115 C25.8960684,11.1023935 25.8088889,11.1314533 25.7046154,11.1314533 C24.1336752,11.1314533 24.1900854,9.06307726 23.9986325,7.66649607 C23.8362393,6.46307726 22.7217094,5.62717983 21.5217094,5.80495761 C17.5182906,6.38786359 14.9490598,5.5041029 14.9490598,5.5041029 Z" id="outline"></path>
            <path d="M22.1331624,12.1410256 L21.5724787,12.1410256 C21.2425641,12.1410256 20.9707692,12.4094017 20.9707692,12.7427351 C20.9707692,13.074359 21.2425641,13.3427351 21.5724787,13.3427351 L22.1331624,13.3427351 C22.4647864,13.3427351 22.7348718,13.074359 22.7348718,12.7427351 C22.7348718,12.4094017 22.4647864,12.1410256 22.1331624,12.1410256" id="eye-right"></path>
            <path d="M16.7244444,12.1410256 L16.1637607,12.1410256 C15.8321367,12.1410256 15.5620513,12.4094017 15.5620513,12.7427351 C15.5620513,13.074359 15.8321367,13.3427351 16.1637607,13.3427351 L16.7244444,13.3427351 C17.054359,13.3427351 17.3261538,13.074359 17.3261538,12.7427351 C17.3261538,12.4094017 17.054359,12.1410256 16.7244444,12.1410256" id="eye-left"></path>
        </g>
    </g>
</svg>