<?xml version="1.0" encoding="UTF-8"?>
<svg width="60px" height="60px" viewBox="0 0 60 60" version="1.1" xmlns="http://www.w3.org/2000/svg" xmlns:xlink="http://www.w3.org/1999/xlink">
    <!-- Generator: Sketch 61 (89581) - https://sketch.com -->
    <title>patient-doctor</title>
    <desc>Created with Sketch.</desc>
    <g id="patient-doctor" stroke="none" stroke-width="1" fill="none" fill-rule="evenodd">
        <g transform="translate(10.000000, 15.000000)" fill="#000000" fill-rule="nonzero">
            <path d="M25.6964605,13.506 L25.358956,13.506 C25.1587415,13.506 25,13.393 25,13.253 C25,13.113 25.1587415,13 25.358956,13 L25.6964605,13 C25.8952449,13 26.0582767,13.113 26.0582767,13.253 C26.0582767,13.393 25.8952449,13.506 25.6964605,13.506" id="eye-left"></path>
            <path d="M28.6381838,13.506 L28.3021094,13.506 C28.103325,13.506 27.9417233,13.393 27.9417233,13.253 C27.9417233,13.113 28.103325,13 28.3021094,13 L28.6381838,13 C28.8383983,13 29,13.113 29,13.253 C29,13.393 28.8383983,13.506 28.6381838,13.506" id="eye-right"></path>
            <path d="M12.0783896,0.138628571 C13.2838442,0.138628571 14.4186494,0.6096 15.2752727,1.46537143 C16.1451429,2.32708571 16.622026,3.47851429 16.632329,4.70868571 L16.632329,4.70868571 L16.6352727,5.45302857 C16.8354459,5.55702857 17.0209004,5.6952 17.173974,5.86605714 C17.546355,6.27314286 17.737697,6.82731429 17.6920693,7.38148571 L17.6920693,7.38148571 L17.5816797,8.69634286 C17.5301645,9.31885714 17.1886926,9.84777143 16.7015065,10.1553143 C16.675013,11.1700571 16.3232381,12.1565714 15.6932814,12.9529143 L15.6932814,12.9529143 L15.2841039,13.4714286 C15.3665281,13.7284571 15.4769177,13.9617143 15.6402944,14.1489143 C15.6545224,14.1647619 15.6661338,14.1817651 15.6764368,14.1992635 L15.7330216,14.3049143 C17.5684329,14.9214857 19.2007273,15.9243429 20.5239307,17.2154286 C20.5136277,17.0772571 20.4974372,16.9465143 20.4886061,16.8038857 C20.2295584,12.7434286 20.8315498,9.67691429 22.2828052,7.69051429 C23.5088658,6.01314286 25.29129,5.16034286 27.5726753,5.16034286 C29.8511169,5.16034286 31.6070476,6.00868571 32.7948398,7.68011429 C34.206355,9.668 34.7362251,12.7404571 34.3594286,16.8157714 C34.2048831,18.4990857 33.9325887,19.964 33.7044502,20.9995429 C36.8130216,22.6442286 39.0679134,25.4581714 39.7729351,28.7832 C39.8862684,29.3269714 39.5477403,29.8588571 39.0075671,29.9762286 C38.9398615,29.9896 38.8677403,29.9970286 38.7985628,29.9970286 C38.3378701,29.9970286 37.9286926,29.6731429 37.8300779,29.2051429 C37.1942338,26.2025143 35.0173506,23.6842286 32.0294719,22.3901714 C31.2449697,23.7793143 29.7760519,25.632 27.5108571,25.632 C25.1882597,25.632 23.709039,23.7748571 22.9363117,22.4273143 C19.9955325,23.7317714 17.8628052,26.2337143 17.2343203,29.2081143 C17.1342338,29.6776 16.7235844,30 16.2643636,30 C16.1937143,30 16.1245368,29.9925714 16.0553593,29.9777143 C15.5181299,29.8633143 15.176658,29.3299429 15.2899913,28.7891429 C15.9670476,25.5814857 18.0791688,22.8492571 21.0111169,21.1822857 C20.0941472,19.3712 18.586961,17.8750857 16.7206407,16.8930286 L16.7206407,16.8930286 L16.7206407,19.6089143 C17.440381,19.8273143 17.9702511,20.4958857 17.9702511,21.2966857 C17.9702511,22.2698286 17.1857489,23.0617143 16.2216797,23.0617143 C15.2561385,23.0617143 14.4701645,22.2698286 14.4701645,21.2966857 C14.4701645,20.4958857 15.0029784,19.8273143 15.7241905,19.6089143 L15.7241905,19.6089143 L15.7241905,16.4339429 C15.4548398,16.324 15.1796017,16.2155429 14.8970043,16.1293714 C14.8778701,16.1219429 14.8646234,16.1085714 14.8454892,16.1011429 L14.8454892,16.1011429 L12.1725887,20.8584 C12.0828052,21.0144 11.9179567,21.1109714 11.7369177,21.1109714 C11.5602944,21.1109714 11.3969177,21.0144 11.3071342,20.8584 L11.3071342,20.8584 L8.58124675,16.0194286 C8.51501299,16.0595429 8.45908225,16.1085714 8.38548918,16.1308571 C8.16176623,16.2021714 7.95423377,16.2987429 7.74081385,16.3819429 L7.74081385,16.3819429 L7.74081385,18.4099429 C8.75198268,18.6387429 9.50851948,19.548 9.50851948,20.6385143 L9.50851948,20.6385143 L9.50851948,22.5981714 C9.50851948,22.8774857 9.28774026,23.1018286 9.01250216,23.1018286 C8.74020779,23.1018286 8.51501299,22.8774857 8.51501299,22.5981714 L8.51501299,22.5981714 L8.51501299,20.6385143 C8.51501299,19.9298286 7.9454026,19.3518857 7.24332468,19.3518857 C6.54271861,19.3518857 5.97163636,19.9298286 5.97163636,20.6385143 L5.97163636,20.6385143 L5.97163636,22.5981714 C5.97163636,22.8774857 5.74938528,23.1018286 5.47561905,23.1018286 C5.20185281,23.1018286 4.97518615,22.8774857 4.97518615,22.5981714 L4.97518615,22.5981714 L4.97518615,20.6385143 C4.97518615,19.548 5.73613853,18.6387429 6.74877922,18.4099429 L6.74877922,18.4099429 L6.74877922,16.8350857 C4.29371429,18.1276571 2.51129004,20.3309714 1.9667013,22.9086857 C1.86661472,23.3781714 1.45449351,23.7005714 0.996744589,23.7005714 C0.926095238,23.7005714 0.85838961,23.6961143 0.789212121,23.6797714 C0.249038961,23.5638857 -0.0924329004,23.032 0.0223722944,22.4912 C0.821593074,18.7174857 3.72557576,15.596 7.61570563,14.2856 C7.643671,14.2395429 7.65838961,14.1890286 7.69518615,14.1489143 C7.85120346,13.9765714 7.95570563,13.7596571 8.03665801,13.5293714 C8.03518615,13.5249143 8.0292987,13.5234286 8.02635498,13.5204571 L8.02635498,13.5204571 L7.61570563,13.0064 C6.99163636,12.2145143 6.63691775,11.2309714 6.60600866,10.2221714 C6.08055411,9.928 5.72141991,9.40205714 5.65518615,8.77508571 L5.65518615,8.77508571 L5.51535931,7.48845714 C5.45501299,6.93131429 5.63458009,6.36822857 6.00401732,5.94777143 C6.16150649,5.76651429 6.35137662,5.61942857 6.55890909,5.51097143 L6.55890909,5.51097143 L6.55449351,4.77108571 C6.54860606,3.54091429 7.01224242,2.38502857 7.8688658,1.50994286 C8.72254545,0.637828571 9.86470996,0.152 11.0834113,0.143085714 L11.0834113,0.143085714 L12.0518961,0.138628571 Z M29.3344935,19.4945143 C29.0813333,19.6490286 28.8134545,19.7916571 28.5176104,19.9105143 C28.1805541,20.0427429 27.8273074,20.1110857 27.4637576,20.1110857 C27.0913766,20.1110857 26.7307706,20.0397714 26.386355,19.8986286 C26.1876537,19.8169143 25.9580433,19.6995429 25.7210736,19.5673143 C25.6401212,20.1868571 25.409039,20.9728 24.7908571,21.6606857 C24.6274805,21.8449143 24.4052294,21.9355429 24.1770909,21.9667429 C24.0799481,21.9964571 23.9857489,22.0395429 23.8930216,22.0707429 C24.5715498,23.1998857 25.7755325,24.6291429 27.5108571,24.6291429 C29.2138009,24.6291429 30.3971775,23.1998857 31.0801212,22.0395429 C30.9903377,22.0083429 30.9108571,21.9697143 30.8210736,21.9429714 C30.6179567,21.9043429 30.4207273,21.8211429 30.2691255,21.6502857 C29.6347532,20.9416 29.4066147,20.1304 29.3344935,19.4945143 Z M16.2216797,20.5300571 C15.803671,20.5300571 15.463671,20.8732571 15.463671,21.2966857 C15.463671,21.7141714 15.803671,22.0588571 16.2216797,22.0588571 C16.6396883,22.0588571 16.9796883,21.7141714 16.9796883,21.2966857 C16.9796883,20.8732571 16.6396883,20.5300571 16.2216797,20.5300571 Z M13.2912035,13.7552 C12.7745801,14.0062857 12.2064416,14.1414857 11.6132814,14.1414857 C11.0583896,14.1414857 10.5270476,14.0122286 10.0354459,13.7923429 C9.90150649,14.3524571 9.65864935,14.8665143 9.31864935,15.3018286 L9.31864935,15.3018286 L11.7369177,19.5955429 L14.0977835,15.4028571 C13.7092121,14.9393143 13.4354459,14.3762286 13.2912035,13.7552 Z M25.0101645,10.0305143 L23.4588225,11.4939429 L23.4691255,12.5072 C23.1909437,12.216 22.9127619,12.0763429 22.7228918,12.1758857 C22.4049697,12.3393143 22.4638442,13.0881143 22.8509437,13.8473143 C23.0408139,14.2157714 23.2718961,14.5173714 23.4941472,14.7149714 L23.4941472,14.7149714 L23.4941472,15.0032 C24.069645,17.5125714 25.7858355,18.5644571 26.7631515,18.9685714 C27.20471,19.1513143 27.7066147,19.1557714 28.1525887,18.976 C30.6841905,17.9716571 31.3170909,14.9913143 31.3229784,14.9601143 C31.3833247,14.5307429 31.4039307,13.7418286 31.3862684,12.7181714 C30.9829784,12.7894857 30.413368,12.8622857 29.7789957,12.8622857 C27.4092987,12.8622857 25.7431515,11.8624 25.0101645,10.0305143 L25.0101645,10.0305143 Z M13.8902511,2.90057143 C13.8078268,2.90354286 13.7518961,2.91988571 13.7518961,2.91988571 C13.5428918,3.00902857 13.3368312,3.10857143 13.2117229,3.16948571 C13.0350996,3.25417143 12.882026,3.32548571 12.7628052,3.376 C12.4404675,3.50822857 12.106355,3.6464 11.7001212,3.6464 L11.7001212,3.6464 C11.2570909,3.6464 10.9303377,3.51714286 10.6698182,3.41462857 C10.3195152,3.27794286 10.1399481,3.30765714 9.91769697,3.39828571 C9.89414719,3.41017143 9.79553247,3.44137143 9.77051082,3.4488 C9.73224242,3.45771429 8.9727619,3.67908571 8.55622511,4.58388571 C8.55328139,4.64182857 8.54150649,4.69977143 8.54150649,4.7592 L8.54150649,4.7592 L8.55033766,6.19142857 C8.55622511,6.7872 8.07787013,7.28045714 7.48176623,7.2864 L7.48176623,7.2864 L7.61864935,8.47348571 C8.13380087,8.5136 8.58419048,8.94148571 8.5871342,9.46445714 L8.5871342,9.46445714 L8.59007792,10.1062857 C8.59596537,10.7035429 8.80202597,11.2874286 9.1714632,11.7524571 L9.1714632,11.7524571 L9.54237229,12.2234286 C10.0825455,12.7984 10.8170043,13.1401143 11.6132814,13.1401143 C12.4846234,13.1401143 13.3015065,12.7449143 13.8505108,12.06 C13.8563983,12.0496 13.8667013,12.0451429 13.8784762,12.0362286 L13.8784762,12.0362286 L14.1404675,11.7019429 C14.5157922,11.228 14.720381,10.6322286 14.7159654,10.0245714 L14.7159654,10.0245714 L14.7100779,9.44811429 C14.7086061,9.18068571 14.8116364,8.92514286 14.995619,8.73645714 C15.1589957,8.56708571 15.3768312,8.46457143 15.6064416,8.4408 L15.6064416,8.4408 L15.7109437,7.2136 C15.1325022,7.23885714 14.6600346,6.75748571 14.655619,6.16765714 L14.655619,6.16765714 L14.6467879,4.72057143 C14.6409004,4.03268571 14.3730216,3.3864 13.8902511,2.90057143 Z" id="outline"></path>
            <path d="M10.611,7.2465 L10.387,7.2465 C10.249,7.2465 10.135,7.3605 10.135,7.4995 C10.135,7.6395 10.249,7.7535 10.387,7.7535 L10.611,7.7535 C10.751,7.7535 10.865,7.6395 10.865,7.4995 C10.865,7.3605 10.751,7.2465 10.611,7.2465" id="eye-left"></path>
            <path d="M12.611,7.2465 L12.389,7.2465 C12.25,7.2465 12.136,7.3605 12.136,7.4995 C12.136,7.6395 12.25,7.7535 12.389,7.7535 L12.611,7.7535 C12.753,7.7535 12.864,7.6395 12.864,7.4995 C12.864,7.3605 12.753,7.2465 12.611,7.2465" id="eye-right"></path>
        </g>
    </g>
</svg>