<?xml version="1.0" encoding="UTF-8"?>
<svg width="60px" height="60px" viewBox="0 0 60 60" version="1.1" xmlns="http://www.w3.org/2000/svg" xmlns:xlink="http://www.w3.org/1999/xlink">
    <!-- Generator: Sketch 61 (89581) - https://sketch.com -->
    <title>person</title>
    <desc>Created with Sketch.</desc>
    <g id="person" stroke="none" stroke-width="1" fill="none" fill-rule="evenodd">
        <g transform="translate(14.000000, 10.000000)" fill="#000000" fill-rule="nonzero">
            <path d="M15.1001333,39.9867 C11.4914667,39.9867 7.8828,39.9967 4.27413333,39.9830333 C1.47946667,39.9727 -0.0455333333,38.4077 0.00113333333,35.6387 C0.136133333,27.6100333 6.83146667,21.0417 14.9111333,21.0118233 C23.1098,20.9817 29.9188,27.5030333 30.0931333,35.5520333 C30.1558,38.4560333 28.6794667,39.9760333 25.7594667,39.9843667 C22.2064667,39.9940333 18.6534667,39.9867 15.1001333,39.9867" id="Fill-1"></path>
            <path d="M15.0290333,18.3190784 C9.9577,18.3130667 5.7497,14.1330667 5.78703333,9.1384 C5.82503333,4.09373333 9.9907,-0.00526666667 15.0750333,5.62795403e-05 C20.1417,0.0054 24.3140333,4.15673333 24.3120348,9.19073333 C24.3100333,14.2184 20.1340333,18.3247333 15.0290333,18.3190784" id="Fill-4"></path>
        </g>
    </g>
</svg>