<?xml version="1.0" encoding="UTF-8"?>
<svg width="60px" height="60px" viewBox="0 0 60 60" version="1.1" xmlns="http://www.w3.org/2000/svg" xmlns:xlink="http://www.w3.org/1999/xlink">
    <!-- Generator: Sketch 61 (89581) - https://sketch.com -->
    <title>search-list</title>
    <desc>Created with Sketch.</desc>
    <g id="search-list" stroke="none" stroke-width="1" fill="none" fill-rule="evenodd">
        <g transform="translate(11.000000, 10.000000)" fill="#000000" fill-rule="nonzero">
            <path d="M26.6963337,14.0355151 C31.2812322,17.4237511 32.1664492,22.7691079 29.0828426,28.6673955 C30.8308661,30.4152916 32.5849233,32.1688359 34.3407363,33.9245183 L36.9752378,36.5592066 C38.348531,37.9328099 38.3457297,37.9369025 36.941622,39.3578938 C36.7459606,39.5560614 36.5817602,39.7852466 36.4031222,40 L35.5411776,40 C32.5495836,37.0613031 29.558205,34.1223907 26.5004568,31.1184277 C23.947808,32.8605798 21.033789,33.4242806 17.9111794,32.6578888 C15.4119712,32.0446461 13.4170005,30.6419638 11.9182945,28.5491411 C8.93898316,24.3886976 9.48394759,18.5468447 13.1780264,14.9753037 C16.8794318,11.3970853 22.5893834,11.0001038 26.6963337,14.0355151 Z M20.4519764,15.4881701 C16.6053334,15.5168183 13.5135383,18.6487287 13.5176244,22.5129977 C13.5217268,26.3901908 16.603394,29.4701899 20.4821445,29.473642 C24.3404238,29.4770827 27.4731612,26.3815748 27.5039757,22.5349685 C27.5347902,18.682331 24.3096092,15.459522 20.4519764,15.4881701 Z" id="outline"></path>
            <path d="M8,21 C7.9577273,21.6957518 7.92155581,22.2906606 7.8781936,23 L4.0002179,23 L0,23 L0,21 L8,21 Z" id="line-1"></path>
            <path d="M0,14 L11,14 C10.3785583,14.666369 9.81902999,15.282069 9.22927955,15.8806663 C9.14721819,15.9637826 8.91698466,15.9946315 8.75517057,15.9949512 C5.86602305,16.0016644 2.97687552,15.9997464 0,15.9997464 L0,14 Z" id="line-2"></path>
            <polygon id="line-3" points="0 9 25 9 25 7 0 7"></polygon>
            <polygon id="line-4" points="0 2 25 2 25 0 0 0"></polygon>
        </g>
    </g>
</svg>