<?xml version="1.0" encoding="UTF-8"?>
<svg width="60px" height="60px" viewBox="0 0 60 60" version="1.1" xmlns="http://www.w3.org/2000/svg" xmlns:xlink="http://www.w3.org/1999/xlink">
    <!-- Generator: Sketch 61 (89581) - https://sketch.com -->
    <title>search</title>
    <desc>Created with Sketch.</desc>
    <g id="search" stroke="none" stroke-width="1" fill="none" fill-rule="evenodd">
        <g transform="translate(10.000000, 10.000000)" fill="#000000" fill-rule="nonzero" id="Fill-1">
            <path d="M15.84268,0.02992 C23.38868,0.53612 29.31228,5.79232 30.35468,12.95612 C30.95168,17.05852 30.02888,20.81972 27.42808,24.52092 C27.64168,24.62752 27.95728,24.70972 28.17308,24.90312 C31.74508,28.10612 35.31068,31.31652 38.85928,34.54552 C39.29408,34.94132 39.62228,35.45432 40.00008,35.91292 L40.00008,37.11292 C38.60288,39.00092 37.61248,39.08492 35.86388,37.47112 C35.05588,36.72572 34.24108,35.98752 33.42808,35.24712 C30.52448,32.60252 27.62028,29.95832 24.70548,27.30372 C24.39008,27.52132 24.11868,27.71252 23.84328,27.89792 C15.35508,33.60872 3.88368,29.68132 0.72648,19.97532 C0.44248,19.10172 0.24028,18.20112 8e-05,17.31292 L8e-05,13.31292 C0.20388,12.51572 0.38528,11.71192 0.61508,10.92212 C2.55188,4.26892 9.11468,-0.42128 15.84268,0.02992 Z M15.31008,4.16812 C9.24648,4.08732 4.21968,9.04372 4.17068,15.15112 C4.12028,21.41432 8.94908,26.30512 15.24268,26.36552 C21.24368,26.42292 26.29988,21.47712 26.38268,15.46872 C26.46768,9.29932 21.52088,4.25072 15.31008,4.16812 Z"></path>
        </g>
    </g>
</svg>