<?xml version="1.0" encoding="UTF-8"?>
<svg width="60px" height="60px" viewBox="0 0 60 60" version="1.1" xmlns="http://www.w3.org/2000/svg" xmlns:xlink="http://www.w3.org/1999/xlink">
    <!-- Generator: Sketch 61 (89581) - https://sketch.com -->
    <title>submit-claim</title>
    <desc>Created with Sketch.</desc>
    <g id="submit-claim" stroke="none" stroke-width="1" fill="none" fill-rule="evenodd">
        <path d="M43.2180513,10 C45.257267,10.855126 45.9167484,12.4358543 45.8780349,14.5608964 C45.8001576,18.852437 45.8571026,23.1464426 45.8508003,27.4393278 C45.8503502,27.8092997 45.844048,28.1913726 45.7542414,28.5463306 C45.5629243,29.3033053 45.0038281,29.6909804 44.25409,29.6017927 C43.5210077,29.5146219 43.0130043,29.0603921 43.0051266,28.2572549 C42.9889209,26.614902 42.997699,24.9721009 42.9972489,23.3295238 C42.9967987,20.2684594 42.9700143,17.2071709 43.0130043,14.1465546 C43.0265091,13.1836415 42.7068969,12.8282353 41.71835,12.8340616 C36.1318893,12.8667787 30.5445284,12.8217367 24.9585179,12.8878431 C24.2979111,12.8954622 23.4966299,13.2661064 23.0104592,13.7288515 C20.5449439,16.0757423 18.1325473,18.4806723 15.7746197,20.934902 C15.3044297,21.4245378 14.8983872,22.2155742 14.8932104,22.8710364 C14.8324391,30.4486274 14.8540467,38.0268908 14.8567476,45.60493 C14.8567476,45.8202801 14.8875834,46.0358543 14.9130174,46.3661624 L17.296829,46.3661624 C20.4089962,46.3661624 23.5211634,46.3654902 26.6331057,46.367507 C26.970274,46.3677311 27.3137446,46.3455462 27.64281,46.4008963 C28.4485928,46.5360224 28.967625,47.0386554 28.9268857,47.8462746 C28.8847959,48.6866107 28.3702653,49.2098599 27.4580202,49.210084 C22.8085634,49.2112504 18.1593317,49.212549 13.5098749,49.2087394 C12.5355079,49.2078431 12.0212024,48.6193838 12.0191767,47.7360224 C11.9999787,39.225098 11.9667333,30.7135014 12.0873757,22.2041457 C12.1020058,21.1771429 12.7961494,19.969972 13.5339584,19.1773669 C16.0048756,16.5236975 18.6157919,13.9968627 21.226033,11.4760784 C21.8483764,10.8752941 22.6773423,10.4862745 23.4110999,10 L43.2180513,10 Z" id="border" fill="#000000" fill-rule="nonzero"></path>
        <path d="M20.8191883,25.679693 C19.7663504,25.6794582 18.7130437,25.6977764 17.6606746,25.6742916 C16.6221339,25.6510414 15.9203982,25.0237584 15.9215643,24.1719592 C15.9229764,23.3185162 16.6218995,22.6902938 17.6662997,22.6787861 C19.5769708,22.6576497 21.4892826,22.6250057 23.3978443,22.6905287 C24.4509166,22.7264607 24.768268,22.2887011 24.7476424,21.3084393 C24.7080321,19.4336358 24.7415486,17.557658 24.7361579,15.6821499 C24.7333452,14.6981305 25.0682752,13.9841881 26.1637704,13.9245363 C27.1221529,13.8726346 27.6556033,14.5027358 27.6668536,15.7190213 C27.6853697,17.7507043 27.7010731,19.7833267 27.6624003,21.8143051 C27.6171649,24.1846411 26.110566,25.6463444 23.7437901,25.6778142 C22.769001,25.690731 21.7939775,25.6799279 20.8191883,25.679693 Z" id="corner" fill="#000000" fill-rule="nonzero"></path>
        <path d="M43.1459264,44.7873467 C41.6780232,44.7873467 40.2103542,44.7983623 38.742451,44.7840653 C37.4247593,44.7714091 36.8063372,44.2649234 36.8377387,43.266249 C36.8674998,42.3256998 37.4657688,41.8663236 38.7295623,41.8546048 C40.1995747,41.8412453 41.6698213,41.8515579 43.4922804,41.8515579 C42.7911363,41.1446811 42.304413,40.6726487 41.8387802,40.1806942 C41.096158,39.395536 41.0260904,38.5309244 41.635139,37.9002197 C42.25403,37.2592024 43.1227269,37.2990462 43.8974536,38.0527982 C45.296461,39.4138173 46.6865636,40.7849146 48.0567472,42.1749962 C48.7740608,42.9032012 48.7874181,43.7103908 48.0689329,44.4421113 C46.6739092,45.8628962 45.2509991,47.2562592 43.8309011,48.6519659 C43.1417083,49.3293113 42.3606544,49.4429836 41.6634941,48.735638 C40.973364,48.0348549 41.0729583,47.2379779 41.7504341,46.5601637 C42.2594198,46.0513342 42.8307397,45.6046143 43.3744076,45.1302381 C43.2980129,45.0160972 43.2220869,44.9017219 43.1459264,44.7873467" id="arrow" fill="#000000" fill-rule="nonzero"></path>
    </g>
</svg>