<?xml version="1.0" encoding="UTF-8"?>
<svg width="60px" height="60px" viewBox="0 0 60 60" version="1.1" xmlns="http://www.w3.org/2000/svg" xmlns:xlink="http://www.w3.org/1999/xlink">
    <!-- Generator: Sketch 61 (89581) - https://sketch.com -->
    <title>trash</title>
    <desc>Created with Sketch.</desc>
    <g id="trash" stroke="none" stroke-width="1" fill="none" fill-rule="evenodd">
        <g transform="translate(17.000000, 10.000000)" fill="#000000" fill-rule="nonzero">
            <path d="M2.31459423,13.341926 C5.99605083,13.3263131 9.67769955,13.3367876 13.3591562,13.3365899 C16.9445564,13.3363923 20.5301487,13.3333333 24.1155489,13.3375781 C26.0234206,13.3399497 26.8164621,14.2836453 26.6435606,16.2631334 C26.0397502,23.1769143 25.4432401,30.091288 24.8565278,37.0066501 C24.6807446,39.0790253 23.7349736,39.9986099 21.6997311,39.9990051 C16.0975313,40.0000002 10.4951393,40.0007837 4.89293944,39.9986099 C3.02944576,39.9978192 2.03795187,39.0839661 1.87081378,37.1833336 C1.24529467,30.0735011 0.626691621,22.9628782 0.0115466007,15.8520576 C-0.115632039,14.3814735 0.817843805,13.3482503 2.31459423,13.341926 Z M22.7419428,18.306852 L18.1539061,18.306852 L18.1539061,35.0981123 L21.5650601,35.0981123 C21.9625414,29.4272427 22.3515697,23.8765337 22.7419428,18.306852 L22.7419428,18.306852 Z M8.55230307,18.3080378 L3.96272949,18.3080378 C4.35905811,23.9302897 4.75116021,29.4902875 5.14479925,35.0757797 L5.14479925,35.0757797 L8.55230307,35.0757797 L8.55230307,18.3080378 Z M15.6466426,18.3303702 L11.0993339,18.3303702 L11.0993339,35.0712341 L15.6466426,35.0712341 L15.6466426,18.3303702 Z" id="Fill-1-path-2"></path>
            <path d="M13.4046923,1.27701426e-06 L17.6157234,0.00567793856 C18.8305346,0.00917126875 19.4938019,0.688187323 19.7235967,2.15298434 C19.8465651,2.93680029 19.9960133,3.72367293 20.0304735,4.51578555 C20.0611249,5.21903659 20.336262,5.35767811 20.8355716,5.33693648 C21.5289462,5.30833483 22.2239531,5.32339981 22.9182346,5.33213315 C25.5979651,5.36510144 26.9906996,7.34429133 26.6025694,10.6666667 L26.6025694,10.6666667 L0.0707882297,10.6666667 C-0.342552276,7.48664453 1.08065218,5.39042808 3.64956615,5.33497147 C4.61046041,5.31422981 5.57208012,5.33147813 6.60153194,5.33147813 C6.74281859,4.26513909 6.88029648,3.27390667 7.00435304,2.27983589 C7.2009573,0.703907309 7.85696986,0.0076429368 9.19366118,0.00480460603 C12.0010757,-0.00109038867 14.8083089,-0.00240038749 17.6157234,0.00567793856 Z M17.5101665,2.71737549 L9.20780799,2.71737549 C9.10732942,3.55773973 9.01319878,4.34461237 8.90328903,5.26292155 L8.90328903,5.26292155 L17.7878428,5.26292155 C17.6908102,4.37255901 17.6024834,3.56428973 17.5101665,2.71737549 L17.5101665,2.71737549 Z" id="Fill-3"></path>
        </g>
    </g>
</svg>